<svg width="33" height="32" viewBox="0 0 33 32" fill="none" xmlns="http://www.w3.org/2000/svg">
<path d="M16.8613 10.1668C16.8613 9.70659 16.4882 9.3335 16.028 9.3335C15.5678 9.3335 15.1947 9.70659 15.1947 10.1668V15.1668L10.1947 15.1668C9.73442 15.1668 9.36133 15.5398 9.36133 16.0001C9.36133 16.4603 9.73442 16.8334 10.1947 16.8334L15.1947 16.8334V21.8335C15.1947 22.2937 15.5678 22.6668 16.028 22.6668C16.4882 22.6668 16.8613 22.2937 16.8613 21.8335V16.8334L21.8613 16.8334C22.3216 16.8334 22.6947 16.4603 22.6947 16.0001C22.6947 15.5398 22.3216 15.1668 21.8613 15.1668L16.8613 15.1668V10.1668Z" fill="#595959"/>
<rect x="0.527344" y="0.5" width="31" height="31" rx="15.5" stroke="#E3E3E3"/>
</svg>
