<svg width="18" height="14" viewBox="0 0 18 14" fill="none" xmlns="http://www.w3.org/2000/svg">
<path d="M6.5 11.1665C6.5 12.087 5.75381 12.8332 4.83333 12.8332C3.91286 12.8332 3.16667 12.087 3.16667 11.1665M6.5 11.1665C6.5 10.246 5.75381 9.49984 4.83333 9.49984C3.91286 9.49984 3.16667 10.246 3.16667 11.1665M6.5 11.1665H11.5M3.16667 11.1665H1.5V1.99984C1.5 1.77882 1.5878 1.56686 1.74408 1.41058C1.90036 1.2543 2.11232 1.1665 2.33333 1.1665H9.83333V6.1665H5.66667M14.8333 11.1665C14.8333 12.087 14.0871 12.8332 13.1667 12.8332C12.2462 12.8332 11.5 12.087 11.5 11.1665M14.8333 11.1665C14.8333 10.246 14.0871 9.49984 13.1667 9.49984C12.2462 9.49984 11.5 10.246 11.5 11.1665M14.8333 11.1665H16.5V6.1665L14 1.99984H9.83333M5.66667 6.1665L7.33333 7.83317M5.66667 6.1665L7.33333 4.49984" stroke="white" stroke-width="2" stroke-linecap="round" stroke-linejoin="round"/>
</svg>
