<svg width="20" height="20" viewBox="0 0 20 20" fill="none" xmlns="http://www.w3.org/2000/svg">
<path fill-rule="evenodd" clip-rule="evenodd" d="M7.36655 1.8502C7.53279 2.01665 7.53317 2.28689 7.36738 2.4538L4.03864 5.80509C3.87286 5.972 3.60369 5.97238 3.43745 5.80593C3.27121 5.63948 3.27084 5.36924 3.43662 5.20233L6.76536 1.85103C6.93114 1.68412 7.20031 1.68375 7.36655 1.8502Z" fill="white"/>
<path fill-rule="evenodd" clip-rule="evenodd" d="M6.52119 1.60656C6.82146 1.30426 7.30895 1.30359 7.61004 1.60505C7.91114 1.90652 7.91181 2.39597 7.61155 2.69826L4.28281 6.04956C3.98255 6.35186 3.49505 6.35253 3.19396 6.05107C2.89287 5.7496 2.89219 5.26016 3.19246 4.95786L6.52119 1.60656ZM7.12306 2.09534C7.09166 2.06391 7.04083 2.06398 7.00952 2.0955L3.68079 5.44679C3.64948 5.47831 3.64955 5.52935 3.68094 5.56078C3.71234 5.59221 3.76317 5.59214 3.79448 5.56062L7.12321 2.20933C7.15452 2.17781 7.15445 2.12677 7.12306 2.09534Z" fill="white"/>
<path fill-rule="evenodd" clip-rule="evenodd" d="M12.6336 1.8502C12.7999 1.68375 13.069 1.68412 13.2348 1.85103L16.5636 5.20233C16.7293 5.36924 16.729 5.63948 16.5627 5.80593C16.3965 5.97238 16.1273 5.972 15.9615 5.80509L12.6328 2.4538C12.467 2.28689 12.4674 2.01665 12.6336 1.8502Z" fill="white"/>
<path fill-rule="evenodd" clip-rule="evenodd" d="M12.3901 1.60505C12.6912 1.30359 13.1787 1.30426 13.479 1.60656L16.8077 4.95786C17.108 5.26016 17.1073 5.7496 16.8062 6.05107C16.5051 6.35253 16.0176 6.35186 15.7174 6.04956L12.3886 2.69826C12.0884 2.39597 12.089 1.90652 12.3901 1.60505ZM12.9907 2.0955C12.9593 2.06398 12.9085 2.06391 12.8771 2.09534C12.8457 2.12677 12.8457 2.17781 12.877 2.20933L16.2057 5.56062C16.237 5.59214 16.2878 5.59221 16.3192 5.56078C16.3506 5.52935 16.3507 5.47831 16.3194 5.44679L12.9907 2.0955Z" fill="white"/>
<path fill-rule="evenodd" clip-rule="evenodd" d="M1.63723 6.34422C1.43545 6.47991 1.22922 6.76938 1.22922 7.55331C1.22922 8.5069 1.45077 8.75725 1.61294 8.85109C1.71681 8.91119 1.86262 8.94864 2.08053 8.96471C2.24556 8.97689 2.41868 8.97558 2.61975 8.97405C2.69118 8.97351 2.76613 8.97294 2.84549 8.97294H17.1535C17.2329 8.97294 17.3079 8.97351 17.3793 8.97405C17.5803 8.97558 17.7535 8.97689 17.9185 8.96471C18.1364 8.94864 18.2822 8.91119 18.3861 8.85109C18.5483 8.75725 18.7698 8.5069 18.7698 7.55331C18.7698 6.76938 18.5636 6.47991 18.3618 6.34422C18.1143 6.17777 17.7321 6.13367 17.1535 6.13367H2.84549C2.26692 6.13367 1.88475 6.17777 1.63723 6.34422ZM1.1641 5.63498C1.65451 5.3052 2.29303 5.28005 2.84549 5.28005H17.1535C17.706 5.28005 18.3445 5.3052 18.8349 5.63498C19.3711 5.99552 19.62 6.62927 19.62 7.55331C19.62 8.58465 19.3864 9.25751 18.8106 9.59067C18.5455 9.74406 18.2517 9.79605 17.9808 9.81604C17.7782 9.83098 17.5557 9.82923 17.3447 9.82758C17.2796 9.82706 17.2155 9.82656 17.1535 9.82656H2.84549C2.7835 9.82656 2.71947 9.82706 2.65432 9.82758C2.44338 9.82923 2.22079 9.83098 2.01822 9.81604C1.74733 9.79605 1.45349 9.74406 1.1884 9.59067C0.612632 9.25751 0.379007 8.58465 0.379007 7.55331C0.379007 6.62927 0.627949 5.99552 1.1641 5.63498Z" fill="white"/>
<path fill-rule="evenodd" clip-rule="evenodd" d="M0.972204 5.34733C1.56081 4.95152 2.30261 4.93384 2.84549 4.93384H17.1535C17.6964 4.93384 18.4382 4.95152 19.0268 5.34733C19.6991 5.79942 19.9649 6.57338 19.9649 7.55331C19.9649 8.61488 19.727 9.46004 18.9828 9.89063C18.6524 10.0818 18.2986 10.1397 18.0061 10.1613C17.7895 10.1773 17.5553 10.1755 17.3492 10.1738L17.342 10.1738C17.2766 10.1733 17.2139 10.1728 17.1535 10.1728H2.84549C2.78509 10.1728 2.72243 10.1733 2.65702 10.1738L2.64985 10.1738C2.44375 10.1755 2.20955 10.1773 1.99295 10.1613C1.70047 10.1397 1.34664 10.0818 1.01621 9.89063C0.272057 9.46004 0.0341797 8.61488 0.0341797 7.55331C0.0341797 6.57338 0.299922 5.79942 0.972204 5.34733ZM2.84549 5.62626C2.28345 5.62626 1.74821 5.65887 1.35599 5.92263C0.955975 6.19163 0.723835 6.68516 0.723835 7.55331C0.723835 8.55441 0.953207 9.05499 1.36058 9.29071C1.56034 9.4063 1.7942 9.45237 2.04349 9.47076C2.22952 9.48449 2.43756 9.48306 2.65162 9.48138C2.71632 9.48087 2.7821 9.48035 2.84549 9.48035H17.1535C17.2169 9.48035 17.2821 9.48087 17.3468 9.48137C17.5609 9.48306 17.7695 9.48449 17.9555 9.47076C18.2048 9.45237 18.4387 9.4063 18.6385 9.29071C19.0458 9.05499 19.2752 8.55441 19.2752 7.55331C19.2752 6.68516 19.0431 6.19163 18.643 5.92263C18.2508 5.65887 17.7156 5.62626 17.1535 5.62626H2.84549ZM2.84549 6.47988C2.25485 6.47988 1.97767 6.53198 1.82913 6.63186C1.76207 6.67696 1.57405 6.82779 1.57405 7.55331C1.57405 8.00812 1.62759 8.26085 1.68125 8.3981C1.7284 8.5187 1.77252 8.54392 1.78424 8.55062C1.78456 8.5508 1.78485 8.55097 1.78512 8.55113C1.8235 8.57333 1.90918 8.60493 2.1058 8.61944C2.25428 8.63039 2.41273 8.6294 2.61715 8.62785C2.6883 8.62731 2.7648 8.62673 2.84549 8.62673H17.1535C17.2342 8.62673 17.3103 8.62731 17.3815 8.62785C17.5859 8.6294 17.7448 8.63039 17.8932 8.61944C18.0898 8.60493 18.1755 8.57333 18.2139 8.55113L18.2148 8.55062C18.2265 8.54392 18.2706 8.51869 18.3178 8.3981C18.3714 8.26085 18.425 8.00812 18.425 7.55331C18.425 6.82779 18.237 6.67696 18.1699 6.63186C18.0214 6.53198 17.7442 6.47988 17.1535 6.47988H2.84549ZM1.44534 6.05657C1.79184 5.82356 2.27899 5.78746 2.84549 5.78746H17.1535C17.72 5.78746 18.2072 5.82356 18.5537 6.05657C18.8902 6.28285 19.1146 6.71097 19.1146 7.55331C19.1146 8.54069 18.8871 8.9608 18.5583 9.15104C18.3889 9.24904 18.183 9.29234 17.9438 9.30999C17.7648 9.3232 17.5797 9.32179 17.3851 9.32031L17.3767 9.32025C17.3051 9.31971 17.2314 9.31915 17.1535 9.31915H2.84549C2.76762 9.31915 2.69393 9.31971 2.62236 9.32025L2.61397 9.32031C2.41932 9.32179 2.23428 9.3232 2.05526 9.30999C1.81606 9.29234 1.61011 9.24904 1.44075 9.15104C1.11198 8.9608 0.884394 8.54069 0.884394 7.55331C0.884394 6.71097 1.10884 6.28285 1.44534 6.05657Z" fill="white"/>
<path fill-rule="evenodd" clip-rule="evenodd" d="M17.9349 9.12902C18.1603 9.19502 18.2897 9.43197 18.2239 9.65826L16.6847 14.9567C16.5216 15.8087 16.3169 16.6697 15.7199 17.2977C15.1001 17.9497 14.1404 18.2746 12.6572 18.2746H7.11239C5.7284 18.2746 4.76703 17.9282 4.11795 17.2683C3.48485 16.6246 3.21543 15.7471 3.06363 14.8325L1.77124 9.64227C1.7143 9.41359 1.85278 9.18186 2.08055 9.12469C2.30832 9.06752 2.53913 9.20656 2.59607 9.43524L3.89683 14.6591L3.89965 14.6763C4.04262 15.5465 4.27496 16.213 4.72293 16.6685C5.1589 17.1118 5.8665 17.4209 7.11239 17.4209H12.6572C14.0338 17.4209 14.7154 17.118 15.1049 16.7083C15.5125 16.2795 15.6862 15.6534 15.8535 14.7762L15.8573 14.7564L17.4077 9.41925C17.4735 9.19296 17.7095 9.06301 17.9349 9.12902Z" fill="white"/>
<path fill-rule="evenodd" clip-rule="evenodd" d="M17.0767 9.32231C17.1958 8.91246 17.6232 8.67712 18.0314 8.79666C18.4396 8.9162 18.674 9.34535 18.555 9.7552L17.0203 15.038C16.8586 15.8804 16.6402 16.831 15.9694 17.5367C15.2561 18.2871 14.1834 18.6208 12.6572 18.6208H7.11239C5.67258 18.6208 4.60819 18.2595 3.87258 17.5115C3.1667 16.7938 2.88159 15.8345 2.72579 14.9032L1.43671 9.72624C1.33358 9.31206 1.58439 8.89236 1.99692 8.78882C2.40945 8.68527 2.82747 8.93709 2.9306 9.35127L4.23477 14.5888L4.23988 14.6199C4.3795 15.4698 4.59706 16.0478 4.96829 16.4252C5.31796 16.7808 5.92276 17.0747 7.11239 17.0747H12.6572C13.9903 17.0747 14.5593 16.7808 14.8554 16.4693C15.1841 16.1235 15.3459 15.5966 15.5148 14.7111L15.5217 14.6752L17.0767 9.32231ZM17.8383 9.46138C17.7958 9.44891 17.7512 9.47345 17.7388 9.51618L16.1929 14.8376L16.1922 14.8414C16.0265 15.7102 15.8408 16.4356 15.3543 16.9474C14.8716 17.4552 14.0773 17.7672 12.6572 17.7672H7.11239C5.81024 17.7672 4.99984 17.4428 4.47756 16.9118C3.95286 16.3783 3.70575 15.6233 3.55942 14.7326L3.55888 14.7294L2.26154 9.51921C2.25078 9.47602 2.2072 9.44976 2.16418 9.46056C2.12117 9.47136 2.09502 9.51512 2.10577 9.5583L3.4015 14.762L3.40377 14.7756C3.55208 15.6691 3.80648 16.4588 4.36331 17.025C4.92587 17.597 5.78422 17.9284 7.11239 17.9284H12.6572C14.0974 17.9284 14.9442 17.6123 15.4705 17.0587C15.9893 16.5128 16.1819 15.7492 16.3461 14.8914L16.3492 14.8754L17.8929 9.56132C17.9053 9.51859 17.8809 9.47384 17.8383 9.46138Z" fill="white"/>
</svg>
