<svg width="25" height="24" viewBox="0 0 25 24" fill="none" xmlns="http://www.w3.org/2000/svg">
<path fill-rule="evenodd" clip-rule="evenodd" d="M8.89552 2.22024C9.09502 2.41998 9.09546 2.74426 8.89652 2.94456L4.90204 6.96611C4.70309 7.1664 4.3801 7.16685 4.18061 6.96711C3.98111 6.76737 3.98067 6.44308 4.17961 6.24279L8.1741 2.22123C8.37304 2.02094 8.69603 2.0205 8.89552 2.22024Z" fill="#714830"/>
<path fill-rule="evenodd" clip-rule="evenodd" d="M7.8811 1.92787C8.24141 1.56511 8.82641 1.5643 9.18772 1.92606C9.54903 2.28782 9.54984 2.87516 9.18952 3.23792L5.19504 7.25947C4.83472 7.62223 4.24972 7.62304 3.88841 7.26128C3.5271 6.89952 3.5263 6.31219 3.88661 5.94943L7.8811 1.92787ZM8.60333 2.51441C8.56566 2.47669 8.50466 2.47677 8.46709 2.5146L4.47261 6.53615C4.43504 6.57398 4.43512 6.63522 4.4728 6.67294C4.51047 6.71066 4.57147 6.71057 4.60904 6.67275L8.60352 2.65119C8.64109 2.61337 8.64101 2.55213 8.60333 2.51441Z" fill="#714830"/>
<path fill-rule="evenodd" clip-rule="evenodd" d="M15.216 2.22024C15.4155 2.0205 15.7385 2.02094 15.9374 2.22123L19.9319 6.24279C20.1309 6.44308 20.1304 6.76737 19.9309 6.96711C19.7314 7.16685 19.4084 7.1664 19.2095 6.96611L15.215 2.94456C15.0161 2.74426 15.0165 2.41998 15.216 2.22024Z" fill="#714830"/>
<path fill-rule="evenodd" clip-rule="evenodd" d="M14.9238 1.92606C15.2851 1.5643 15.8701 1.56511 16.2304 1.92787L20.2249 5.94943C20.5852 6.31219 20.5844 6.89952 20.2231 7.26128C19.8618 7.62304 19.2768 7.62223 18.9165 7.25947L14.922 3.23792C14.5617 2.87516 14.5625 2.28782 14.9238 1.92606ZM15.6444 2.5146C15.6069 2.47677 15.5459 2.47669 15.5082 2.51441C15.4705 2.55213 15.4705 2.61337 15.508 2.65119L19.5025 6.67275C19.5401 6.71057 19.6011 6.71066 19.6387 6.67294C19.6764 6.63522 19.6765 6.57398 19.6389 6.53615L15.6444 2.5146Z" fill="#714830"/>
<path fill-rule="evenodd" clip-rule="evenodd" d="M2.02035 7.61306C1.77821 7.77589 1.53073 8.12326 1.53073 9.06397C1.53073 10.2083 1.79659 10.5087 1.99119 10.6213C2.11583 10.6934 2.29081 10.7384 2.5523 10.7577C2.75034 10.7723 2.95809 10.7707 3.19937 10.7689C3.28508 10.7682 3.37502 10.7675 3.47026 10.7675H20.6399C20.7352 10.7675 20.8251 10.7682 20.9108 10.7689C21.1521 10.7707 21.3598 10.7723 21.5579 10.7577C21.8194 10.7384 21.9943 10.6934 22.119 10.6213C22.3136 10.5087 22.5794 10.2083 22.5794 9.06397C22.5794 8.12326 22.332 7.77589 22.0898 7.61306C21.7928 7.41332 21.3342 7.36041 20.6399 7.36041H3.47026C2.77597 7.36041 2.31737 7.41332 2.02035 7.61306ZM1.45258 6.76198C2.04108 6.36624 2.8073 6.33606 3.47026 6.33606H20.6399C21.3029 6.33606 22.0691 6.36624 22.6576 6.76198C23.301 7.19463 23.5997 7.95512 23.5997 9.06397C23.5997 10.3016 23.3193 11.109 22.6284 11.5088C22.3103 11.6929 21.9577 11.7553 21.6326 11.7792C21.3896 11.7972 21.1225 11.7951 20.8693 11.7931C20.7911 11.7925 20.7143 11.7919 20.6399 11.7919H3.47026C3.39587 11.7919 3.31902 11.7925 3.24085 11.7931C2.98772 11.7951 2.72061 11.7972 2.47752 11.7792C2.15246 11.7553 1.79985 11.6929 1.48174 11.5088C0.790822 11.109 0.510473 10.3016 0.510473 9.06397C0.510473 7.95512 0.809202 7.19463 1.45258 6.76198Z" fill="#714830"/>
<path fill-rule="evenodd" clip-rule="evenodd" d="M1.22231 6.4168C1.92863 5.94183 2.8188 5.92061 3.47026 5.92061H20.6399C21.2914 5.92061 22.1815 5.94182 22.8879 6.4168C23.6946 6.9593 24.0135 7.88805 24.0135 9.06397C24.0135 10.3379 23.728 11.352 22.835 11.8688C22.4385 12.0982 22.0139 12.1677 21.663 12.1936C21.403 12.2128 21.122 12.2105 20.8747 12.2086L20.8661 12.2085C20.7876 12.2079 20.7124 12.2073 20.6399 12.2073H3.47026C3.39777 12.2073 3.32258 12.2079 3.24409 12.2085L3.23548 12.2086C2.98816 12.2105 2.70712 12.2128 2.4472 12.1936C2.09623 12.1677 1.67164 12.0982 1.27512 11.8688C0.382132 11.352 0.0966797 10.3379 0.0966797 9.06397C0.0966797 7.88805 0.415571 6.9593 1.22231 6.4168ZM3.47026 6.75151C2.79581 6.75151 2.15352 6.79065 1.68285 7.10716C1.20283 7.42995 0.924266 8.0222 0.924266 9.06397C0.924266 10.2653 1.19951 10.866 1.68836 11.1489C1.92807 11.2876 2.2087 11.3428 2.50785 11.3649C2.73109 11.3814 2.98074 11.3797 3.23761 11.3777C3.31525 11.377 3.39418 11.3764 3.47026 11.3764H20.6399C20.716 11.3764 20.7942 11.377 20.8719 11.3776C21.1287 11.3797 21.3791 11.3814 21.6023 11.3649C21.9015 11.3428 22.1821 11.2876 22.4218 11.1489C22.9107 10.866 23.1859 10.2653 23.1859 9.06397C23.1859 8.0222 22.9073 7.42995 22.4273 7.10716C21.9566 6.79065 21.3144 6.75151 20.6399 6.75151H3.47026ZM3.47026 7.77586C2.76149 7.77586 2.42886 7.83837 2.25062 7.95824C2.17015 8.01235 1.94452 8.19335 1.94452 9.06397C1.94452 9.60975 2.00877 9.91302 2.07317 10.0777C2.12974 10.2224 2.18268 10.2527 2.19675 10.2607C2.19713 10.261 2.19749 10.2612 2.19781 10.2614C2.24386 10.288 2.34668 10.3259 2.58262 10.3433C2.76079 10.3565 2.95095 10.3553 3.19624 10.3534C3.28163 10.3528 3.37342 10.3521 3.47026 10.3521H20.6399C20.7367 10.3521 20.828 10.3528 20.9134 10.3534C21.1587 10.3553 21.3494 10.3565 21.5275 10.3433C21.7635 10.3259 21.8663 10.288 21.9124 10.2614L21.9134 10.2607C21.9275 10.2527 21.9804 10.2224 22.037 10.0777C22.1014 9.91302 22.1656 9.60975 22.1656 9.06397C22.1656 8.19335 21.94 8.01235 21.8596 7.95824C21.6813 7.83837 21.3487 7.77586 20.6399 7.77586H3.47026ZM1.79007 7.26788C2.20587 6.98827 2.79045 6.94496 3.47026 6.94496H20.6399C21.3197 6.94496 21.9043 6.98827 22.3201 7.26788C22.7239 7.53942 22.9932 8.05317 22.9932 9.06397C22.9932 10.2488 22.7201 10.753 22.3256 10.9813C22.1224 11.0989 21.8752 11.1508 21.5882 11.172C21.3734 11.1878 21.1513 11.1862 20.9177 11.1844L20.9077 11.1843C20.8218 11.1837 20.7334 11.183 20.6399 11.183H3.47026C3.37681 11.183 3.28838 11.1837 3.20249 11.1843L3.19243 11.1844C2.95885 11.1862 2.7368 11.1878 2.52197 11.172C2.23493 11.1508 1.9878 11.0989 1.78457 10.9813C1.39003 10.753 1.11694 10.2488 1.11694 9.06397C1.11694 8.05317 1.38627 7.53942 1.79007 7.26788Z" fill="#714830"/>
<path fill-rule="evenodd" clip-rule="evenodd" d="M21.5775 10.9548C21.848 11.034 22.0033 11.3184 21.9244 11.5899L20.0773 17.948C19.8816 18.9705 19.6359 20.0036 18.9196 20.7572C18.1758 21.5396 17.0242 21.9295 15.2443 21.9295H8.59053C6.92974 21.9295 5.7761 21.5139 4.9972 20.7219C4.23749 19.9495 3.91419 18.8965 3.73202 17.799L2.18115 11.5707C2.11282 11.2963 2.279 11.0182 2.55233 10.9496C2.82565 10.881 3.10262 11.0479 3.17095 11.3223L4.73185 17.5909L4.73524 17.6115C4.90681 18.6558 5.18562 19.4556 5.72317 20.0022C6.24635 20.5341 7.09546 20.9051 8.59053 20.9051H15.2443C16.8962 20.9051 17.7142 20.5416 18.1815 20.05C18.6706 19.5354 18.8791 18.7841 19.0799 17.7315L19.0844 17.7077L20.9449 11.3031C21.0238 11.0315 21.307 10.8756 21.5775 10.9548Z" fill="#714830"/>
<path fill-rule="evenodd" clip-rule="evenodd" d="M20.5477 11.1868C20.6906 10.695 21.2035 10.4125 21.6934 10.556C22.1832 10.6994 22.4645 11.2144 22.3216 11.7062L20.48 18.0457C20.286 19.0564 20.0239 20.1972 19.2189 21.044C18.363 21.9446 17.0758 22.3449 15.2443 22.3449H8.59053C6.86276 22.3449 5.58549 21.9114 4.70276 21.0138C3.85571 20.1526 3.51357 19.0014 3.32661 17.8838L1.77971 11.6715C1.65596 11.1745 1.95693 10.6708 2.45197 10.5466C2.947 10.4223 3.44863 10.7245 3.57239 11.2215L5.13738 17.5066L5.14352 17.5439C5.31106 18.5637 5.57214 19.2573 6.01761 19.7103C6.43722 20.1369 7.16297 20.4897 8.59053 20.4897H15.2443C16.844 20.4897 17.5268 20.137 17.8821 19.7632C18.2766 19.3482 18.4708 18.7159 18.6734 17.6534L18.6817 17.6102L20.5477 11.1868ZM21.4616 11.3537C21.4106 11.3387 21.3571 11.3681 21.3422 11.4194L19.4871 17.8051L19.4863 17.8096C19.2874 18.8522 19.0646 19.7227 18.4808 20.3368C17.9016 20.9462 16.9484 21.3206 15.2443 21.3206H8.59053C7.02796 21.3206 6.05548 20.9314 5.42874 20.2941C4.7991 19.6539 4.50256 18.748 4.32696 17.6791L4.32632 17.6752L2.76951 11.423C2.75661 11.3712 2.7043 11.3397 2.65268 11.3527C2.60107 11.3656 2.56969 11.4181 2.58259 11.47L4.13747 17.7144L4.14019 17.7307C4.31816 18.803 4.62344 19.7506 5.29164 20.43C5.9667 21.1164 6.99672 21.514 8.59053 21.514H15.2443C16.9725 21.514 17.9887 21.1347 18.6202 20.4704C19.2428 19.8154 19.4739 18.899 19.671 17.8696L19.6747 17.8505L21.5272 11.4736C21.5421 11.4223 21.5127 11.3686 21.4616 11.3537Z" fill="#714830"/>
</svg>
