<svg width="33" height="32" viewBox="0 0 33 32" fill="none" xmlns="http://www.w3.org/2000/svg">
<path d="M24.4283 7.61329C23.9083 7.09329 23.0683 7.09329 22.5483 7.61329L16.0283 14.12L9.50828 7.59996C8.98828 7.07996 8.14828 7.07996 7.62828 7.59996C7.10828 8.11996 7.10828 8.95996 7.62828 9.47996L14.1483 16L7.62828 22.52C7.10828 23.04 7.10828 23.88 7.62828 24.4C8.14828 24.92 8.98828 24.92 9.50828 24.4L16.0283 17.88L22.5483 24.4C23.0683 24.92 23.9083 24.92 24.4283 24.4C24.9483 23.88 24.9483 23.04 24.4283 22.52L17.9083 16L24.4283 9.47996C24.9349 8.97329 24.9349 8.11996 24.4283 7.61329Z" fill="#262626"/>
</svg>
