<svg width="21" height="20" viewBox="0 0 21 20" fill="none" xmlns="http://www.w3.org/2000/svg">
<g clip-path="url(#clip0_248_6410)">
<path fill-rule="evenodd" clip-rule="evenodd" d="M0.887695 5C0.887695 3.61929 2.00698 2.5 3.3877 2.5H16.721C18.1017 2.5 19.221 3.61929 19.221 5V15C19.221 16.3807 18.1017 17.5 16.721 17.5H3.3877C2.00698 17.5 0.887695 16.3807 0.887695 15V5ZM3.3877 4.16667C2.92746 4.16667 2.55436 4.53976 2.55436 5V6.19484L10.0544 10.6948L17.5544 6.19484V5C17.5544 4.53976 17.1813 4.16667 16.721 4.16667H3.3877ZM17.5544 8.13849L10.9119 12.124C10.3841 12.4407 9.72467 12.4407 9.19687 12.124L2.55436 8.13849V15C2.55436 15.4602 2.92746 15.8333 3.3877 15.8333H16.721C17.1813 15.8333 17.5544 15.4602 17.5544 15V8.13849Z" fill="#898989"/>
</g>
<defs>
<clipPath id="clip0_248_6410">
<rect width="20" height="20" fill="white" transform="translate(0.0546875)"/>
</clipPath>
</defs>
</svg>
