<svg width="21" height="20" viewBox="0 0 21 20" fill="none" xmlns="http://www.w3.org/2000/svg">
<path fill-rule="evenodd" clip-rule="evenodd" d="M10.8594 0.669307C10.3295 0.552939 9.78065 0.552939 9.25074 0.669307C8.64963 0.801309 8.10065 1.131 7.30617 1.60812L7.19962 1.67209L3.66629 3.79209L3.56578 3.85236C2.81303 4.30362 2.29268 4.61555 1.90559 5.05578C1.80831 5.16641 1.71784 5.28244 1.63457 5.4032L5.29235 7.56462L13.9491 2.29526L12.9105 1.67209L12.804 1.60811C12.0095 1.131 11.4605 0.801309 10.8594 0.669307ZM6.75619 8.42962L10.0551 10.379L18.4756 5.4032C18.3923 5.28244 18.3018 5.16641 18.2045 5.05578C17.8175 4.61556 17.2971 4.30362 16.5444 3.85237L16.5444 3.85237L16.5444 3.85236L16.4439 3.79209L15.402 3.16696L6.75619 8.42962ZM19.0599 6.80022L10.8051 11.6781V19.3425C10.8232 19.3388 10.8413 19.3349 10.8594 19.3309C11.4605 19.1989 12.0095 18.8693 12.804 18.3921L12.9105 18.3282L16.4439 16.2082L16.5444 16.1479C17.2971 15.6966 17.8175 15.3847 18.2045 14.9445C18.546 14.5562 18.8034 14.1015 18.9607 13.609C19.139 13.0506 19.1388 12.4439 19.1384 11.5663V11.5663L19.1384 11.4491V8.55117L19.1384 8.43398V8.43395C19.1387 7.76475 19.1389 7.25308 19.0599 6.80022ZM9.30507 19.3425V11.6781L1.05024 6.80023C0.971257 7.25309 0.971453 7.76476 0.971708 8.43398L0.971738 8.55117V11.4491L0.971708 11.5663C0.971373 12.4439 0.971142 13.0506 1.14947 13.609C1.30676 14.1015 1.56419 14.5562 1.90559 14.9445C2.29268 15.3847 2.81303 15.6966 3.56578 16.1479L3.66629 16.2082L7.19962 18.3282L7.30618 18.3921C8.10065 18.8693 8.64963 19.1989 9.25074 19.3309C9.26883 19.3349 9.28694 19.3388 9.30507 19.3425Z" fill="#898989"/>
</svg>
