<svg width="21" height="20" viewBox="0 0 21 20" fill="none" xmlns="http://www.w3.org/2000/svg">
<path d="M10.055 15.8335C10.2198 15.8335 10.3809 15.7846 10.518 15.6931C10.655 15.6015 10.7618 15.4713 10.8249 15.3191C10.888 15.1668 10.9045 14.9992 10.8723 14.8376C10.8402 14.6759 10.7608 14.5274 10.6443 14.4109C10.5277 14.2944 10.3792 14.215 10.2176 14.1828C10.0559 14.1507 9.88838 14.1672 9.73611 14.2303C9.58384 14.2933 9.45369 14.4001 9.36212 14.5372C9.27055 14.6742 9.22168 14.8353 9.22168 15.0002C9.22168 15.2212 9.30948 15.4331 9.46576 15.5894C9.62204 15.7457 9.834 15.8335 10.055 15.8335ZM14.2217 15.8335C14.3865 15.8335 14.5476 15.7846 14.6847 15.6931C14.8217 15.6015 14.9285 15.4713 14.9916 15.3191C15.0547 15.1668 15.0712 14.9992 15.039 14.8376C15.0068 14.6759 14.9275 14.5274 14.8109 14.4109C14.6944 14.2944 14.5459 14.215 14.3843 14.1828C14.2226 14.1507 14.055 14.1672 13.9028 14.2303C13.7505 14.2933 13.6204 14.4001 13.5288 14.5372C13.4372 14.6742 13.3883 14.8353 13.3883 15.0002C13.3883 15.2212 13.4761 15.4331 13.6324 15.5894C13.7887 15.7457 14.0007 15.8335 14.2217 15.8335ZM14.2217 12.5002C14.3865 12.5002 14.5476 12.4513 14.6847 12.3597C14.8217 12.2682 14.9285 12.138 14.9916 11.9857C15.0547 11.8335 15.0712 11.6659 15.039 11.5043C15.0068 11.3426 14.9275 11.1941 14.8109 11.0776C14.6944 10.961 14.5459 10.8817 14.3843 10.8495C14.2226 10.8174 14.055 10.8339 13.9028 10.8969C13.7505 10.96 13.6204 11.0668 13.5288 11.2039C13.4372 11.3409 13.3883 11.502 13.3883 11.6668C13.3883 11.8878 13.4761 12.0998 13.6324 12.2561C13.7887 12.4124 14.0007 12.5002 14.2217 12.5002ZM10.055 12.5002C10.2198 12.5002 10.3809 12.4513 10.518 12.3597C10.655 12.2682 10.7618 12.138 10.8249 11.9857C10.888 11.8335 10.9045 11.6659 10.8723 11.5043C10.8402 11.3426 10.7608 11.1941 10.6443 11.0776C10.5277 10.961 10.3792 10.8817 10.2176 10.8495C10.0559 10.8174 9.88838 10.8339 9.73611 10.8969C9.58384 10.96 9.45369 11.0668 9.36212 11.2039C9.27055 11.3409 9.22168 11.502 9.22168 11.6668C9.22168 11.8878 9.30948 12.0998 9.46576 12.2561C9.62204 12.4124 9.834 12.5002 10.055 12.5002ZM15.8883 2.50016H15.055V1.66683C15.055 1.44582 14.9672 1.23385 14.8109 1.07757C14.6547 0.921293 14.4427 0.833496 14.2217 0.833496C14.0007 0.833496 13.7887 0.921293 13.6324 1.07757C13.4761 1.23385 13.3883 1.44582 13.3883 1.66683V2.50016H6.72168V1.66683C6.72168 1.44582 6.63388 1.23385 6.4776 1.07757C6.32132 0.921293 6.10936 0.833496 5.88835 0.833496C5.66733 0.833496 5.45537 0.921293 5.29909 1.07757C5.14281 1.23385 5.05501 1.44582 5.05501 1.66683V2.50016H4.22168C3.55864 2.50016 2.92275 2.76355 2.45391 3.2324C1.98507 3.70124 1.72168 4.33712 1.72168 5.00016V16.6668C1.72168 17.3299 1.98507 17.9658 2.45391 18.4346C2.92275 18.9034 3.55864 19.1668 4.22168 19.1668H15.8883C16.5514 19.1668 17.1873 18.9034 17.6561 18.4346C18.125 17.9658 18.3883 17.3299 18.3883 16.6668V5.00016C18.3883 4.33712 18.125 3.70124 17.6561 3.2324C17.1873 2.76355 16.5514 2.50016 15.8883 2.50016ZM16.7217 16.6668C16.7217 16.8878 16.6339 17.0998 16.4776 17.2561C16.3213 17.4124 16.1094 17.5002 15.8883 17.5002H4.22168C4.00067 17.5002 3.7887 17.4124 3.63242 17.2561C3.47614 17.0998 3.38835 16.8878 3.38835 16.6668V9.16683H16.7217V16.6668ZM16.7217 7.50016H3.38835V5.00016C3.38835 4.77915 3.47614 4.56719 3.63242 4.41091C3.7887 4.25463 4.00067 4.16683 4.22168 4.16683H5.05501V5.00016C5.05501 5.22118 5.14281 5.43314 5.29909 5.58942C5.45537 5.7457 5.66733 5.8335 5.88835 5.8335C6.10936 5.8335 6.32132 5.7457 6.4776 5.58942C6.63388 5.43314 6.72168 5.22118 6.72168 5.00016V4.16683H13.3883V5.00016C13.3883 5.22118 13.4761 5.43314 13.6324 5.58942C13.7887 5.7457 14.0007 5.8335 14.2217 5.8335C14.4427 5.8335 14.6547 5.7457 14.8109 5.58942C14.9672 5.43314 15.055 5.22118 15.055 5.00016V4.16683H15.8883C16.1094 4.16683 16.3213 4.25463 16.4776 4.41091C16.6339 4.56719 16.7217 4.77915 16.7217 5.00016V7.50016ZM5.88835 12.5002C6.05316 12.5002 6.21428 12.4513 6.35132 12.3597C6.48836 12.2682 6.59517 12.138 6.65825 11.9857C6.72132 11.8335 6.73782 11.6659 6.70567 11.5043C6.67351 11.3426 6.59415 11.1941 6.4776 11.0776C6.36106 10.961 6.21257 10.8817 6.05092 10.8495C5.88927 10.8174 5.72172 10.8339 5.56944 10.8969C5.41717 10.96 5.28702 11.0668 5.19546 11.2039C5.10389 11.3409 5.05501 11.502 5.05501 11.6668C5.05501 11.8878 5.14281 12.0998 5.29909 12.2561C5.45537 12.4124 5.66733 12.5002 5.88835 12.5002ZM5.88835 15.8335C6.05316 15.8335 6.21428 15.7846 6.35132 15.6931C6.48836 15.6015 6.59517 15.4713 6.65825 15.3191C6.72132 15.1668 6.73782 14.9992 6.70567 14.8376C6.67351 14.6759 6.59415 14.5274 6.4776 14.4109C6.36106 14.2944 6.21257 14.215 6.05092 14.1828C5.88927 14.1507 5.72172 14.1672 5.56944 14.2303C5.41717 14.2933 5.28702 14.4001 5.19546 14.5372C5.10389 14.6742 5.05501 14.8353 5.05501 15.0002C5.05501 15.2212 5.14281 15.4331 5.29909 15.5894C5.45537 15.7457 5.66733 15.8335 5.88835 15.8335Z" fill="#898989"/>
</svg>
