<svg width="21" height="20" viewBox="0 0 21 20" fill="none" xmlns="http://www.w3.org/2000/svg">
<path fill-rule="evenodd" clip-rule="evenodd" d="M7.42124 1.8502C7.58748 2.01665 7.58785 2.28689 7.42207 2.4538L4.09333 5.80509C3.92755 5.972 3.65838 5.97238 3.49214 5.80593C3.3259 5.63948 3.32552 5.36924 3.49131 5.20233L6.82005 1.85103C6.98583 1.68412 7.25499 1.68375 7.42124 1.8502Z" fill="#898989"/>
<path fill-rule="evenodd" clip-rule="evenodd" d="M6.57588 1.60656C6.87614 1.30426 7.36364 1.30359 7.66473 1.60505C7.96582 1.90652 7.9665 2.39597 7.66623 2.69826L4.3375 6.04956C4.03723 6.35186 3.54974 6.35253 3.24865 6.05107C2.94755 5.7496 2.94688 5.26016 3.24714 4.95786L6.57588 1.60656ZM7.17774 2.09534C7.14635 2.06391 7.09552 2.06398 7.06421 2.0955L3.73548 5.44679C3.70417 5.47831 3.70424 5.52935 3.73563 5.56078C3.76703 5.59221 3.81786 5.59214 3.84916 5.56062L7.1779 2.20933C7.20921 2.17781 7.20914 2.12677 7.17774 2.09534Z" fill="#898989"/>
<path fill-rule="evenodd" clip-rule="evenodd" d="M12.6883 1.8502C12.8546 1.68375 13.1237 1.68412 13.2895 1.85103L16.6182 5.20233C16.784 5.36924 16.7837 5.63948 16.6174 5.80593C16.4512 5.97238 16.182 5.972 16.0162 5.80509L12.6875 2.4538C12.5217 2.28689 12.5221 2.01665 12.6883 1.8502Z" fill="#898989"/>
<path fill-rule="evenodd" clip-rule="evenodd" d="M12.4448 1.60505C12.7459 1.30359 13.2334 1.30426 13.5337 1.60656L16.8624 4.95786C17.1627 5.26016 17.162 5.7496 16.8609 6.05107C16.5598 6.35253 16.0723 6.35186 15.7721 6.04956L12.4433 2.69826C12.1431 2.39597 12.1437 1.90652 12.4448 1.60505ZM13.0453 2.0955C13.014 2.06398 12.9632 2.06391 12.9318 2.09534C12.9004 2.12677 12.9003 2.17781 12.9317 2.20933L16.2604 5.56062C16.2917 5.59214 16.3425 5.59221 16.3739 5.56078C16.4053 5.52935 16.4054 5.47831 16.3741 5.44679L13.0453 2.0955Z" fill="#898989"/>
<path fill-rule="evenodd" clip-rule="evenodd" d="M1.69192 6.34422C1.49014 6.47991 1.28391 6.76938 1.28391 7.55331C1.28391 8.5069 1.50546 8.75725 1.66762 8.85109C1.77149 8.91119 1.91731 8.94864 2.13522 8.96471C2.30025 8.97689 2.47337 8.97558 2.67444 8.97405C2.74586 8.97351 2.82081 8.97294 2.90018 8.97294H17.2082C17.2876 8.97294 17.3625 8.97351 17.434 8.97405C17.635 8.97558 17.8082 8.97689 17.9732 8.96471C18.1911 8.94864 18.3369 8.91119 18.4408 8.85109C18.603 8.75725 18.8245 8.5069 18.8245 7.55331C18.8245 6.76938 18.6183 6.47991 18.4165 6.34422C18.169 6.17777 17.7868 6.13367 17.2082 6.13367H2.90018C2.32161 6.13367 1.93944 6.17777 1.69192 6.34422ZM1.21879 5.63498C1.7092 5.3052 2.34772 5.28005 2.90018 5.28005H17.2082C17.7607 5.28005 18.3992 5.3052 18.8896 5.63498C19.4258 5.99552 19.6747 6.62927 19.6747 7.55331C19.6747 8.58465 19.4411 9.25751 18.8653 9.59067C18.6002 9.74406 18.3064 9.79605 18.0355 9.81604C17.8329 9.83098 17.6103 9.82923 17.3994 9.82758C17.3343 9.82706 17.2702 9.82656 17.2082 9.82656H2.90018C2.83819 9.82656 2.77415 9.82706 2.70901 9.82758C2.49807 9.82923 2.27548 9.83098 2.0729 9.81604C1.80202 9.79605 1.50818 9.74406 1.24308 9.59067C0.667319 9.25751 0.433695 8.58465 0.433695 7.55331C0.433695 6.62927 0.682636 5.99552 1.21879 5.63498Z" fill="#898989"/>
<path fill-rule="evenodd" clip-rule="evenodd" d="M1.02689 5.34733C1.61549 4.95152 2.3573 4.93384 2.90018 4.93384H17.2082C17.7511 4.93384 18.4929 4.95152 19.0815 5.34733C19.7538 5.79942 20.0195 6.57338 20.0195 7.55331C20.0195 8.61488 19.7817 9.46004 19.0375 9.89063C18.7071 10.0818 18.3533 10.1397 18.0608 10.1613C17.8442 10.1773 17.61 10.1755 17.4039 10.1738L17.3967 10.1738C17.3313 10.1733 17.2686 10.1728 17.2082 10.1728H2.90018C2.83978 10.1728 2.77712 10.1733 2.71171 10.1738L2.70454 10.1738C2.49844 10.1755 2.26423 10.1773 2.04763 10.1613C1.75516 10.1397 1.40133 10.0818 1.0709 9.89063C0.326744 9.46004 0.0888672 8.61488 0.0888672 7.55331C0.0888672 6.57338 0.35461 5.79942 1.02689 5.34733ZM2.90018 5.62626C2.33814 5.62626 1.8029 5.65887 1.41068 5.92263C1.01066 6.19163 0.778522 6.68516 0.778522 7.55331C0.778522 8.55441 1.00789 9.05499 1.41527 9.29071C1.61503 9.4063 1.84888 9.45237 2.09818 9.47076C2.28421 9.48449 2.49225 9.48306 2.70631 9.48138C2.77101 9.48087 2.83679 9.48035 2.90018 9.48035H17.2082C17.2716 9.48035 17.3368 9.48087 17.4015 9.48137C17.6156 9.48306 17.8242 9.48449 18.0102 9.47076C18.2595 9.45237 18.4934 9.4063 18.6931 9.29071C19.1005 9.05499 19.3299 8.55441 19.3299 7.55331C19.3299 6.68516 19.0977 6.19163 18.6977 5.92263C18.3055 5.65887 17.7703 5.62626 17.2082 5.62626H2.90018ZM2.90018 6.47988C2.30954 6.47988 2.03235 6.53198 1.88382 6.63186C1.81676 6.67696 1.62874 6.82779 1.62874 7.55331C1.62874 8.00812 1.68228 8.26085 1.73594 8.3981C1.78309 8.51869 1.8272 8.54392 1.83893 8.55062C1.83925 8.5508 1.83954 8.55097 1.83981 8.55113C1.87819 8.57333 1.96387 8.60493 2.16049 8.61944C2.30896 8.63039 2.46742 8.6294 2.67184 8.62785C2.74299 8.62731 2.81948 8.62673 2.90018 8.62673H17.2082C17.2889 8.62673 17.365 8.62731 17.4361 8.62785C17.6406 8.6294 17.7994 8.63039 17.9479 8.61944C18.1445 8.60493 18.2302 8.57333 18.2686 8.55113L18.2695 8.55062C18.2812 8.54392 18.3253 8.51869 18.3725 8.3981C18.4261 8.26085 18.4797 8.00812 18.4797 7.55331C18.4797 6.82779 18.2917 6.67696 18.2246 6.63186C18.0761 6.53198 17.7989 6.47988 17.2082 6.47988H2.90018ZM1.50003 6.05657C1.84653 5.82356 2.33368 5.78746 2.90018 5.78746H17.2082C17.7747 5.78746 18.2619 5.82356 18.6084 6.05657C18.9449 6.28285 19.1693 6.71097 19.1693 7.55331C19.1693 8.54069 18.9417 8.9608 18.613 9.15104C18.4436 9.24904 18.2377 9.29234 17.9985 9.30999C17.8194 9.3232 17.6344 9.32179 17.4398 9.32031L17.4314 9.32025C17.3598 9.31971 17.2861 9.31915 17.2082 9.31915H2.90018C2.82231 9.31915 2.74861 9.31971 2.67704 9.32025L2.66866 9.32031C2.47401 9.32179 2.28897 9.3232 2.10994 9.30999C1.87074 9.29234 1.6648 9.24904 1.49544 9.15104C1.16666 8.9608 0.939082 8.54069 0.939082 7.55331C0.939082 6.71097 1.16353 6.28285 1.50003 6.05657Z" fill="#898989"/>
<path fill-rule="evenodd" clip-rule="evenodd" d="M17.9896 9.12902C18.2149 9.19502 18.3444 9.43197 18.2786 9.65826L16.7394 14.9567C16.5763 15.8087 16.3715 16.6697 15.7746 17.2977C15.1548 17.9497 14.1951 18.2746 12.7119 18.2746H7.16708C5.78308 18.2746 4.82172 17.9282 4.17264 17.2683C3.53954 16.6246 3.27012 15.7471 3.11832 14.8325L1.82593 9.64227C1.76899 9.41359 1.90747 9.18186 2.13524 9.12469C2.36301 9.06752 2.59381 9.20655 2.65076 9.43524L3.95151 14.6591L3.95433 14.6763C4.09731 15.5465 4.32965 16.213 4.77761 16.6685C5.21359 17.1118 5.92119 17.4209 7.16708 17.4209H12.7119C14.0885 17.4209 14.7701 17.118 15.1595 16.7083C15.5672 16.2795 15.7409 15.6534 15.9082 14.7762L15.912 14.7564L17.4624 9.41925C17.5282 9.19296 17.7642 9.06301 17.9896 9.12902Z" fill="#898989"/>
<path fill-rule="evenodd" clip-rule="evenodd" d="M17.1314 9.32231C17.2505 8.91246 17.6779 8.67712 18.0861 8.79666C18.4943 8.9162 18.7287 9.34535 18.6097 9.7552L17.075 15.038C16.9133 15.8804 16.6948 16.831 16.0241 17.5367C15.3108 18.2871 14.2381 18.6208 12.7119 18.6208H7.16708C5.72726 18.6208 4.66288 18.2595 3.92727 17.5115C3.22139 16.7938 2.93627 15.8345 2.78047 14.9032L1.4914 9.72624C1.38826 9.31206 1.63908 8.89236 2.05161 8.78882C2.46413 8.68527 2.88216 8.93709 2.98529 9.35127L4.28945 14.5888L4.29456 14.6199C4.43419 15.4698 4.65175 16.0478 5.02298 16.4252C5.37265 16.7808 5.97745 17.0747 7.16708 17.0747H12.7119C14.045 17.0747 14.614 16.7808 14.9101 16.4693C15.2388 16.1235 15.4006 15.5966 15.5695 14.7111L15.5764 14.6752L17.1314 9.32231ZM17.893 9.46138C17.8504 9.44891 17.8059 9.47345 17.7935 9.51618L16.2476 14.8376L16.2469 14.8414C16.0811 15.7102 15.8955 16.4356 15.409 16.9474C14.9263 17.4552 14.132 17.7672 12.7119 17.7672H7.16708C5.86493 17.7672 5.05453 17.4428 4.53225 16.9118C4.00755 16.3783 3.76043 15.6233 3.6141 14.7326L3.61357 14.7294L2.31623 9.51921C2.30547 9.47602 2.26188 9.44976 2.21887 9.46056C2.17586 9.47136 2.14971 9.51512 2.16046 9.5583L3.45619 14.762L3.45846 14.7756C3.60677 15.6691 3.86117 16.4588 4.418 17.025C4.98055 17.597 5.8389 17.9284 7.16708 17.9284H12.7119C14.1521 17.9284 14.9989 17.6123 15.5252 17.0587C16.044 16.5128 16.2366 15.7492 16.4008 14.8914L16.4038 14.8754L17.9476 9.56132C17.96 9.51859 17.9356 9.47384 17.893 9.46138Z" fill="#898989"/>
</svg>
