<svg width="17" height="17" viewBox="0 0 17 17" fill="none" xmlns="http://www.w3.org/2000/svg">
<path d="M12.2278 4.30665C11.9678 4.04665 11.5478 4.04665 11.2878 4.30665L8.02781 7.55998L4.76781 4.29998C4.50781 4.03998 4.08781 4.03998 3.82781 4.29998C3.56781 4.55998 3.56781 4.97998 3.82781 5.23998L7.08781 8.49998L3.82781 11.76C3.56781 12.02 3.56781 12.44 3.82781 12.7C4.08781 12.96 4.50781 12.96 4.76781 12.7L8.02781 9.43998L11.2878 12.7C11.5478 12.96 11.9678 12.96 12.2278 12.7C12.4878 12.44 12.4878 12.02 12.2278 11.76L8.96781 8.49998L12.2278 5.23998C12.4811 4.98665 12.4811 4.55998 12.2278 4.30665Z" fill="#714830"/>
</svg>
