<svg width="17" height="17" viewBox="0 0 17 17" fill="none" xmlns="http://www.w3.org/2000/svg">
<g clip-path="url(#clip0_115_5374)">
<path fill-rule="evenodd" clip-rule="evenodd" d="M14.9358 1.21727C15.1849 1.32046 15.3473 1.56355 15.3473 1.83319V3.83319C15.3473 4.20138 15.0489 4.49986 14.6807 4.49986C14.3125 4.49986 14.014 4.20138 14.014 3.83319V3.44267L11.2254 6.23126C10.9651 6.49161 10.5429 6.49161 10.2826 6.23126C10.0222 5.97091 10.0222 5.5488 10.2826 5.28845L14.2093 1.36179C14.3999 1.17112 14.6867 1.11408 14.9358 1.21727Z" fill="#714830"/>
<path fill-rule="evenodd" clip-rule="evenodd" d="M11.0807 9.75986C10.3443 9.75986 9.74733 10.3568 9.74733 11.0932C9.74733 11.8296 10.3443 12.4265 11.0807 12.4265C11.817 12.4265 12.414 11.8296 12.414 11.0932C12.414 10.3568 11.817 9.75986 11.0807 9.75986ZM8.414 11.0932C8.414 9.62043 9.6079 8.42652 11.0807 8.42652C12.5534 8.42652 13.7473 9.62043 13.7473 11.0932C13.7473 12.5659 12.5534 13.7599 11.0807 13.7599C9.6079 13.7599 8.414 12.5659 8.414 11.0932Z" fill="#714830"/>
<path fill-rule="evenodd" clip-rule="evenodd" d="M5.42066 4.09986C4.68428 4.09986 4.08733 4.69681 4.08733 5.43319C4.08733 6.16957 4.68428 6.76652 5.42066 6.76652C6.15704 6.76652 6.754 6.16957 6.754 5.43319C6.754 4.69681 6.15704 4.09986 5.42066 4.09986ZM2.754 5.43319C2.754 3.96043 3.9479 2.76652 5.42066 2.76652C6.89342 2.76652 8.08733 3.96043 8.08733 5.43319C8.08733 6.90595 6.89342 8.09986 5.42066 8.09986C3.9479 8.09986 2.754 6.90595 2.754 5.43319Z" fill="#714830"/>
<path fill-rule="evenodd" clip-rule="evenodd" d="M8.24733 6.93319C7.51095 6.93319 6.914 7.53014 6.914 8.26652C6.914 9.0029 7.51095 9.59986 8.24733 9.59986C8.98371 9.59986 9.58066 9.0029 9.58066 8.26652C9.58066 7.53014 8.98371 6.93319 8.24733 6.93319ZM5.58066 8.26652C5.58066 6.79376 6.77457 5.59986 8.24733 5.59986C9.72009 5.59986 10.914 6.79376 10.914 8.26652C10.914 9.73928 9.72009 10.9332 8.24733 10.9332C6.77457 10.9332 5.58066 9.73928 5.58066 8.26652Z" fill="#714830"/>
<path fill-rule="evenodd" clip-rule="evenodd" d="M9.28733 3.06652C8.55095 3.06652 7.954 3.66348 7.954 4.39986C7.954 5.13624 8.55095 5.73319 9.28733 5.73319C10.0237 5.73319 10.6207 5.13624 10.6207 4.39986C10.6207 3.66348 10.0237 3.06652 9.28733 3.06652ZM6.62066 4.39986C6.62066 2.9271 7.81457 1.73319 9.28733 1.73319C10.7601 1.73319 11.954 2.9271 11.954 4.39986C11.954 5.87262 10.7601 7.06652 9.28733 7.06652C7.81457 7.06652 6.62066 5.87262 6.62066 4.39986Z" fill="#714830"/>
<path fill-rule="evenodd" clip-rule="evenodd" d="M12.114 5.89319C11.3776 5.89319 10.7807 6.49014 10.7807 7.22652C10.7807 7.9629 11.3776 8.55986 12.114 8.55986C12.8504 8.55986 13.4473 7.9629 13.4473 7.22652C13.4473 6.49014 12.8504 5.89319 12.114 5.89319ZM9.44733 7.22652C9.44733 5.75376 10.6412 4.55986 12.114 4.55986C13.5868 4.55986 14.7807 5.75376 14.7807 7.22652C14.7807 8.69928 13.5868 9.89319 12.114 9.89319C10.6412 9.89319 9.44733 8.69928 9.44733 7.22652Z" fill="#714830"/>
<path fill-rule="evenodd" clip-rule="evenodd" d="M4.38733 7.96652C3.65095 7.96652 3.054 8.56348 3.054 9.29986C3.054 10.0362 3.65095 10.6332 4.38733 10.6332C5.12371 10.6332 5.72066 10.0362 5.72066 9.29986C5.72066 8.56348 5.12371 7.96652 4.38733 7.96652ZM1.72066 9.29986C1.72066 7.8271 2.91457 6.63319 4.38733 6.63319C5.86009 6.63319 7.054 7.8271 7.054 9.29986C7.054 10.7726 5.86009 11.9665 4.38733 11.9665C2.91457 11.9665 1.72066 10.7726 1.72066 9.29986Z" fill="#714830"/>
<path fill-rule="evenodd" clip-rule="evenodd" d="M7.214 10.7932C6.47762 10.7932 5.88066 11.3901 5.88066 12.1265C5.88066 12.8629 6.47762 13.4599 7.214 13.4599C7.95038 13.4599 8.54733 12.8629 8.54733 12.1265C8.54733 11.3901 7.95038 10.7932 7.214 10.7932ZM4.54733 12.1265C4.54733 10.6538 5.74124 9.45986 7.214 9.45986C8.68676 9.45986 9.88066 10.6538 9.88066 12.1265C9.88066 13.5993 8.68676 14.7932 7.214 14.7932C5.74124 14.7932 4.54733 13.5993 4.54733 12.1265Z" fill="#714830"/>
<path fill-rule="evenodd" clip-rule="evenodd" d="M3.34733 11.8332C2.61095 11.8332 2.014 12.4301 2.014 13.1665C2.014 13.9029 2.61095 14.4999 3.34733 14.4999C4.08371 14.4999 4.68066 13.9029 4.68066 13.1665C4.68066 12.4301 4.08371 11.8332 3.34733 11.8332ZM0.680664 13.1665C0.680664 11.6938 1.87457 10.4999 3.34733 10.4999C4.82009 10.4999 6.014 11.6938 6.014 13.1665C6.014 14.6393 4.82009 15.8332 3.34733 15.8332C1.87457 15.8332 0.680664 14.6393 0.680664 13.1665Z" fill="#714830"/>
</g>
<defs>
<clipPath id="clip0_115_5374">
<rect width="16" height="16" fill="white" transform="translate(0.0136719 0.5)"/>
</clipPath>
</defs>
</svg>
