<svg width="51" height="50" viewBox="0 0 51 50" fill="none" xmlns="http://www.w3.org/2000/svg">
<path fill-rule="evenodd" clip-rule="evenodd" d="M31.9707 4.91657C33.113 4.91657 33.5114 4.92532 33.814 5.02071C34.5141 5.24145 35.0625 5.78986 35.2832 6.48998C35.3786 6.79251 35.3874 7.19095 35.3874 8.33324V9.37491C35.3874 9.78912 35.7232 10.1249 36.1374 10.1249C36.5516 10.1249 36.8874 9.78912 36.8874 9.37491V8.33324L36.8874 8.19812C36.8878 7.24347 36.888 6.59146 36.7138 6.03892C36.3459 4.87206 35.4319 3.95804 34.265 3.59013C33.7125 3.41592 33.0605 3.41617 32.1058 3.41654L31.9707 3.41657H20.104L20.0719 3.41657C19.2591 3.41656 18.6035 3.41656 18.0726 3.45993C17.5259 3.5046 17.0458 3.59896 16.6016 3.8253C15.896 4.18482 15.3223 4.7585 14.9628 5.46411C14.7364 5.90833 14.6421 6.38847 14.5974 6.9351C14.554 7.46601 14.554 8.12163 14.554 8.93447V8.96657V15.9166H13.3707H13.3377H13.3377H13.3377C12.2455 15.9166 11.3801 15.9166 10.6824 15.9736C9.96905 16.0318 9.36542 16.1535 8.81425 16.4343C7.92048 16.8897 7.19382 17.6163 6.73842 18.5101C6.45758 19.0613 6.33598 19.6649 6.27769 20.3783C6.22069 21.0759 6.2207 21.9414 6.2207 23.0336V23.0666V39.4332V39.4662C6.2207 40.5584 6.22069 41.4239 6.27769 42.1215C6.33598 42.8349 6.45758 43.4385 6.73842 43.9897C7.19382 44.8835 7.92048 45.6101 8.81425 46.0655C9.36542 46.3464 9.96905 46.468 10.6824 46.5262C11.3801 46.5832 12.2455 46.5832 13.3377 46.5832H13.3707H38.0707H38.1037C39.1959 46.5832 40.0614 46.5832 40.759 46.5262C41.4724 46.468 42.076 46.3464 42.6272 46.0655C43.5209 45.6101 44.2476 44.8835 44.703 43.9897C44.9838 43.4385 45.1054 42.8349 45.1637 42.1215C45.2207 41.4239 45.2207 40.5584 45.2207 39.4663V39.4332V23.0666V23.0335C45.2207 21.9414 45.2207 21.0759 45.1637 20.3783C45.1054 19.6649 44.9838 19.0613 44.703 18.5101C44.2476 17.6163 43.5209 16.8897 42.6272 16.4343C42.076 16.1535 41.4724 16.0318 40.759 15.9736C40.0613 15.9166 39.1958 15.9166 38.1037 15.9166H38.0707H16.054V8.96657C16.054 8.11412 16.0546 7.51988 16.0924 7.05725C16.1295 6.60338 16.1986 6.34261 16.2993 6.14509C16.515 5.72173 16.8592 5.37752 17.2826 5.16181C17.4801 5.06117 17.7408 4.99204 18.1947 4.95495C18.6573 4.91715 19.2516 4.91657 20.104 4.91657H31.9707ZM26.4707 29.1666C26.4707 28.7524 26.1349 28.4166 25.7207 28.4166C25.3065 28.4166 24.9707 28.7524 24.9707 29.1666V33.3332C24.9707 33.7474 25.3065 34.0832 25.7207 34.0832C26.1349 34.0832 26.4707 33.7474 26.4707 33.3332V29.1666Z" fill="#AA826B"/>
</svg>
