<svg width="44" height="48" viewBox="0 0 44 48" fill="none" xmlns="http://www.w3.org/2000/svg">
<path fill-rule="evenodd" clip-rule="evenodd" d="M23.1924 0.919306C22.6625 0.802939 22.1137 0.802939 21.5837 0.919307C20.9826 1.05131 20.4337 1.381 19.6392 1.85812L19.5326 1.92209L3.49929 11.5421L3.39879 11.6024C2.64604 12.0536 2.12569 12.3656 1.7386 12.8058C1.50046 13.0766 1.30318 13.3797 1.15225 13.7055L10.492 19.2244C10.5074 19.2133 10.5233 19.2028 10.5398 19.1928L32.1275 6.05244L25.2435 1.92209L25.137 1.85811C24.3425 1.381 23.7935 1.05131 23.1924 0.919306ZM11.9537 20.0882L22.3881 26.2539L43.6239 13.7055C43.473 13.3797 43.2757 13.0766 43.0376 12.8058C42.6505 12.3656 42.1301 12.0536 41.3774 11.6024L41.2769 11.5421L33.5803 6.92414L11.9537 20.0882ZM43.9605 15.2489L23.1381 27.553V47.0925C23.1562 47.0888 23.1743 47.0849 23.1924 47.0809C23.7935 46.9489 24.3425 46.6193 25.1369 46.1422L25.137 46.1421L25.2435 46.0782L41.2769 36.4582L41.3774 36.3979C42.1301 35.9466 42.6505 35.6347 43.0376 35.1945C43.379 34.8062 43.6364 34.3515 43.7937 33.859C43.972 33.3006 43.9718 32.6939 43.9714 31.8162L43.9714 31.6991V16.3012L43.9714 16.184C43.9716 15.8339 43.9717 15.5269 43.9605 15.2489ZM21.6381 47.0925V27.553L0.815692 15.2489C0.804465 15.5269 0.804582 15.8339 0.804716 16.184L0.804746 16.3012V31.6991L0.804716 31.8163C0.804381 32.6939 0.804149 33.3006 0.982481 33.859C1.13977 34.3515 1.3972 34.8062 1.7386 35.1945C2.12568 35.6347 2.64601 35.9466 3.39872 36.3979L3.39878 36.3979L3.3988 36.3979L3.49929 36.4582L19.5326 46.0782L19.6392 46.1421C20.4337 46.6193 20.9826 46.9489 21.5837 47.0809C21.6018 47.0849 21.6199 47.0888 21.6381 47.0925Z" fill="#AA826B"/>
</svg>
