<svg width="52" height="50" viewBox="0 0 52 50" fill="none" xmlns="http://www.w3.org/2000/svg">
<path fill-rule="evenodd" clip-rule="evenodd" d="M27.2334 0.904209C26.4876 0.550485 25.6224 0.550485 24.8765 0.904208C24.3602 1.14908 23.994 1.6126 23.6695 2.13647C23.3432 2.66321 22.9852 3.37918 22.5395 4.27078L22.5394 4.27088L22.522 4.3057L17.8294 13.6909C17.5237 14.3023 17.4348 14.4625 17.3232 14.5793C17.2081 14.6998 17.07 14.7961 16.9172 14.8624C16.769 14.9268 16.5879 14.9548 15.9086 15.0303L5.83241 16.1499L5.79323 16.1542C4.72231 16.2732 3.86681 16.3682 3.21913 16.5C2.58034 16.6299 1.98503 16.8222 1.56831 17.2474C0.972077 17.8557 0.691385 18.706 0.808263 19.5497C0.889952 20.1394 1.25375 20.6484 1.68963 21.1331C2.13158 21.6245 2.76234 22.2102 3.55193 22.9434L3.55194 22.9434L3.58084 22.9702L11.5085 30.3316C12.1066 30.8871 12.26 31.0442 12.3459 31.2115C12.4346 31.3842 12.4819 31.5752 12.4839 31.7694C12.4859 31.9575 12.4235 32.168 12.1532 32.9382L8.51855 43.297L8.50547 43.3343C8.10755 44.4683 7.79193 45.3678 7.6132 46.0692C7.4391 46.7525 7.34322 47.4233 7.57277 48.008C7.89669 48.8331 8.59845 49.4514 9.45773 49.669C10.0666 49.8231 10.7201 49.6435 11.376 49.3848C12.0494 49.1192 12.902 48.6929 13.977 48.1554L14.0123 48.1378L24.9593 42.6643C25.5229 42.3824 25.6767 42.3131 25.8245 42.2854C25.9768 42.2568 26.1331 42.2568 26.2855 42.2854C26.4332 42.3131 26.587 42.3824 27.1507 42.6643L38.0977 48.1378L38.133 48.1554L38.1332 48.1556C39.2081 48.693 40.0606 49.1193 40.7339 49.3848C41.3898 49.6435 42.0433 49.8231 42.6522 49.6689C43.5115 49.4514 44.2133 48.8331 44.5372 48.008C44.7667 47.4233 44.6708 46.7525 44.4967 46.0692C44.318 45.3679 44.0024 44.4684 43.6046 43.3345L43.6045 43.3343L43.5914 43.297L39.9567 32.9382C39.6865 32.168 39.624 31.9575 39.626 31.7694C39.6281 31.5752 39.6753 31.3842 39.764 31.2115C39.8499 31.0442 40.0033 30.8871 40.6014 30.3316L48.5291 22.9702L48.558 22.9434C49.3476 22.2102 49.9784 21.6245 50.4203 21.1331C50.8562 20.6484 51.22 20.1394 51.3017 19.5497C51.4186 18.706 51.1379 17.8557 50.5416 17.2474C50.1249 16.8222 49.5296 16.6299 48.8908 16.5C48.2431 16.3682 47.3876 16.2732 46.3167 16.1542L46.2775 16.1499L36.2014 15.0303C35.522 14.9548 35.3409 14.9268 35.1928 14.8624C35.0399 14.7961 34.9019 14.6998 34.7868 14.5793C34.6752 14.4625 34.5863 14.3023 34.2806 13.6909L29.588 4.30571L29.5705 4.27079C29.1247 3.37919 28.7667 2.66322 28.4405 2.13648C28.1159 1.6126 27.7497 1.14908 27.2334 0.904209Z" fill="#AA826B"/>
</svg>
