<svg width="18" height="18" viewBox="0 0 18 18" fill="none" xmlns="http://www.w3.org/2000/svg">
<path d="M11.9214 7.02484C11.7714 4.69984 10.8297 2.43317 9.06302 0.666504C7.27969 2.44984 6.29635 4.7165 6.10469 7.02484C7.17135 7.5915 8.15469 8.32484 9.01302 9.2165C9.87136 8.33317 10.8547 7.59984 11.9214 7.02484ZM9.05469 3.32484C9.57969 4.18317 9.94635 5.1415 10.138 6.1415C9.74636 6.3915 9.37969 6.6665 9.02135 6.95817C8.67135 6.67484 8.29635 6.39984 7.91302 6.14984C8.12135 5.14984 8.50469 4.1915 9.05469 3.32484ZM9.01302 11.8748C8.32969 10.8332 7.46302 9.92484 6.46302 9.20817C6.35469 9.13317 6.23802 9.07484 6.12969 8.9915C6.23802 9.0665 6.35469 9.13317 6.45469 9.19984C4.82969 8.02484 2.83802 7.33317 0.679688 7.33317C0.679688 11.7665 3.47969 15.5165 7.37135 16.9082C7.89635 17.0998 8.44635 17.2415 9.01302 17.3332C9.57969 17.2332 10.1214 17.0915 10.6547 16.9082C14.5464 15.5165 17.3464 11.7665 17.3464 7.33317C13.863 7.33317 10.8047 9.1415 9.01302 11.8748ZM10.113 15.3332C9.74635 15.4582 9.37969 15.5582 9.00469 15.6415C8.63802 15.5665 8.27969 15.4665 7.93802 15.3415C5.19635 14.3582 3.18802 12.0165 2.56302 9.2165C3.47969 9.43317 4.35469 9.80817 5.16302 10.3248L5.14635 10.3332C5.25469 10.4082 5.36302 10.4832 5.47135 10.5415L5.52969 10.5748C6.35469 11.1748 7.06302 11.9165 7.62135 12.7832L9.01302 14.9165L10.4047 12.7915C10.9797 11.9165 11.6964 11.1665 12.513 10.5748L12.5714 10.5332C12.6464 10.4915 12.7214 10.4415 12.7964 10.3915L12.788 10.3748C13.6047 9.83317 14.513 9.43317 15.463 9.20817C14.838 12.0165 12.838 14.3582 10.113 15.3332ZM6.50469 9.23317C6.48802 9.22484 6.47135 9.20817 6.46302 9.19984C6.46302 9.19984 6.47135 9.19984 6.47135 9.20817C6.47969 9.2165 6.48802 9.22484 6.50469 9.23317Z" fill="#262626"/>
</svg>
