<svg width="33" height="32" viewBox="0 0 33 32" fill="none" xmlns="http://www.w3.org/2000/svg">
<g clip-path="url(#clip0_309_2575)">
<path d="M16.0757 4.79989C9.89012 4.79989 4.87543 9.81434 4.87543 16.0002C4.87543 22.186 9.89012 27.2005 16.0757 27.2005C22.2616 27.2005 27.2763 22.186 27.2763 16.0002C27.2689 9.81727 22.2586 4.80697 16.0757 4.79989ZM16.0757 25.6004C10.7737 25.6004 6.47554 21.3022 6.47554 16.0002C6.47554 10.6981 10.7737 6.4 16.0757 6.4C21.3778 6.4 25.6761 10.6981 25.6761 16.0002C25.6703 21.2998 21.3756 25.5948 16.0757 25.6004Z" fill="#262626"/>
<path d="M21.796 13.4872L18.3494 12.9601L16.7994 9.66004C16.5733 9.26038 16.0662 9.11975 15.6665 9.34583C15.5352 9.42005 15.4268 9.52869 15.3523 9.66004L13.8025 12.9601L10.3555 13.4875C9.91917 13.5529 9.61863 13.9596 9.68406 14.3959C9.70921 14.5624 9.78612 14.7167 9.90404 14.8368L12.4211 17.4172L11.8259 21.0713C11.7549 21.5076 12.0508 21.9187 12.4868 21.9897C12.6638 22.0185 12.8455 21.9871 13.0025 21.9001L16.076 20.2009L19.1495 21.9001C19.5362 22.1138 20.023 21.9736 20.2369 21.5869C20.3236 21.4299 20.3551 21.2483 20.3262 21.0713L19.731 17.4172L22.2481 14.8366C22.557 14.5219 22.5523 14.0163 22.2374 13.7072C22.1173 13.5893 21.9625 13.5121 21.796 13.4872ZM18.304 16.5891C18.1265 16.7705 18.0457 17.0258 18.087 17.2766L18.4822 19.7033L16.4634 18.5869C16.2222 18.4536 15.9295 18.4536 15.6885 18.5869L13.6697 19.7033L14.065 17.2766C14.1062 17.0258 14.0254 16.7707 13.8477 16.5891L12.1353 14.8334L14.4649 14.4772C14.7288 14.4374 14.9551 14.2682 15.0681 14.0265L16.076 11.882L17.084 14.0265C17.1968 14.2682 17.4231 14.4374 17.6871 14.4772L20.0169 14.8334L18.304 16.5891Z" fill="#262626"/>
<path d="M30.6528 16.5749C30.4294 16.2246 30.4294 15.7763 30.6528 15.4257L31.6545 13.8639C32.4482 12.6244 32.0871 10.976 30.8473 10.1823C30.7787 10.1383 30.7079 10.0973 30.6357 10.0599L28.9877 9.20838C28.6198 9.01648 28.3957 8.62927 28.4125 8.21447L28.5001 6.3607C28.5343 5.61167 28.2519 4.8829 27.7218 4.35262C27.1876 3.82943 26.4623 3.54866 25.7152 3.57576L23.8619 3.6617C23.4471 3.68147 23.0587 3.4576 22.868 3.0887L22.0164 1.44049C21.3394 0.133104 19.731 -0.377887 18.4236 0.299121C18.3511 0.336719 18.2806 0.377491 18.212 0.421437L16.6509 1.42145C16.3006 1.64581 15.8516 1.6463 15.5008 1.42218L13.9397 0.421437C12.7004 -0.372516 11.052 -0.0114285 10.258 1.22784C10.2136 1.29718 10.1726 1.36822 10.135 1.44122L9.28367 3.0887C9.08714 3.45198 8.70261 3.67366 8.28977 3.66219L6.43648 3.576C5.6894 3.54744 4.96357 3.82845 4.43036 4.35238C3.90032 4.8829 3.61785 5.61191 3.65203 6.36119L3.73968 8.21301C3.75677 8.62805 3.53289 9.01575 3.16448 9.20789L1.51651 10.0597C0.209373 10.7367 -0.301618 12.3456 0.37539 13.653C0.412988 13.7253 0.45376 13.7958 0.497706 13.8644L1.49942 15.4245C1.72281 15.7751 1.72281 16.2233 1.49942 16.5737L0.497217 18.1362C-0.296491 19.3757 0.0648406 21.0242 1.30435 21.8179C1.3732 21.8618 1.44376 21.9028 1.51603 21.9402L3.16448 22.7915C3.5324 22.9834 3.75628 23.3706 3.73968 23.7852L3.65203 25.6389C3.58391 27.1089 4.7204 28.3555 6.19014 28.4234C6.27217 28.4273 6.3542 28.4273 6.43623 28.4234L8.28928 28.3377C8.7031 28.3228 9.08909 28.5455 9.28318 28.9109L10.1348 30.5594C10.8115 31.8668 12.4199 32.378 13.7273 31.701C13.8001 31.6634 13.8709 31.6224 13.94 31.5782L15.501 30.5782C15.8514 30.3538 16.3003 30.3533 16.6512 30.5775L18.212 31.5782C19.4512 32.3722 21.0997 32.0113 21.8936 30.772C21.9378 30.7027 21.9791 30.6317 22.0167 30.5587L22.8683 28.9107C23.0704 28.5528 23.4513 28.3331 23.8622 28.3372L25.7152 28.4231C27.1852 28.491 28.4315 27.3545 28.4994 25.8848C28.5033 25.8025 28.5033 25.72 28.4994 25.638L28.4125 23.7866C28.3952 23.3713 28.619 22.9836 28.9875 22.7913L30.6354 21.9394C31.9428 21.2624 32.4538 19.6538 31.7765 18.3464C31.7392 18.2741 31.6982 18.2033 31.6542 18.1347L30.6528 16.5749ZM29.3058 17.4382L30.3075 18.9983C30.6247 19.4944 30.4797 20.1533 29.9836 20.4702C29.9569 20.4873 29.9294 20.5032 29.9013 20.5178L28.2528 21.3694C27.33 21.8494 26.7694 22.821 26.8153 23.8601L26.9027 25.7124C26.9174 26.0122 26.8036 26.304 26.5902 26.5149C26.3827 26.7317 26.0897 26.8452 25.7902 26.8252L23.9371 26.739C22.8995 26.6997 21.9312 27.2586 21.4464 28.1766L20.5946 29.8238C20.4583 30.0911 20.2144 30.2877 19.9244 30.3636C19.6351 30.4412 19.3265 30.3934 19.0743 30.2315L17.5135 29.2308C16.6365 28.6714 15.5149 28.6714 14.6382 29.2308L13.0774 30.2315C12.8252 30.3929 12.5166 30.441 12.2273 30.3636C11.9373 30.2877 11.6936 30.0916 11.5571 29.8245L10.7053 28.1766C10.227 27.2522 9.25437 26.691 8.21457 26.739L6.36153 26.825C6.06148 26.8489 5.7668 26.7347 5.56147 26.5149C5.34809 26.304 5.23456 26.0127 5.24897 25.7132L5.33637 23.8584C5.38203 22.8198 4.82123 21.8489 3.89886 21.3694L2.25041 20.518C1.72819 20.2466 1.52506 19.6035 1.79655 19.0815C1.81119 19.0534 1.82706 19.0258 1.84415 18.9992L2.84587 17.4375C3.40496 16.5605 3.40496 15.4387 2.84587 14.5617L1.84415 13.0016C1.52701 12.5055 1.67228 11.8466 2.16813 11.5294C2.19474 11.5124 2.22233 11.4965 2.25041 11.4818L3.89886 10.6303C4.82172 10.1503 5.38251 9.17884 5.33637 8.13952L5.24897 6.28721C5.23456 5.98765 5.34809 5.6959 5.56147 5.48471C5.76606 5.26376 6.06123 5.14926 6.36153 5.17465L8.21481 5.26059C9.25364 5.30576 10.2248 4.74496 10.7056 3.82283L11.5571 2.1756C11.8269 1.65314 12.469 1.4483 12.9915 1.71832C13.0208 1.73346 13.0493 1.74982 13.0772 1.76764L14.6382 2.76838C15.5149 3.32796 16.6365 3.32796 17.5132 2.76838L19.0743 1.76764C19.5696 1.4505 20.2283 1.59503 20.5455 2.0904C20.5631 2.11774 20.5794 2.14582 20.5943 2.17487L21.4459 3.82283C21.9222 4.74911 22.8963 5.31137 23.9366 5.26035L25.7899 5.17441C26.0895 5.15341 26.3829 5.26694 26.59 5.48447C26.8031 5.69516 26.9169 5.98667 26.9025 6.28599L26.8151 8.14099C26.7694 9.17957 27.3302 10.1505 28.2526 10.63L29.901 11.4816C30.423 11.7531 30.6261 12.3961 30.3549 12.9181C30.3403 12.9462 30.3244 12.9738 30.3073 13.0006L29.3056 14.5622C28.746 15.4394 28.7462 16.5612 29.3058 17.4382Z" fill="#262626"/>
</g>
<defs>
<clipPath id="clip0_309_2575">
<rect width="32" height="32" fill="white" transform="translate(0.0136719)"/>
</clipPath>
</defs>
</svg>
