<svg width="25" height="25" viewBox="0 0 25 25" fill="none" xmlns="http://www.w3.org/2000/svg">
<path fill-rule="evenodd" clip-rule="evenodd" d="M22.3964 1.63181C22.77 1.78659 23.0137 2.15123 23.0137 2.55569V5.55569C23.0137 6.10798 22.566 6.55569 22.0137 6.55569C21.4614 6.55569 21.0137 6.10798 21.0137 5.55569V4.96991L16.8308 9.1528C16.4403 9.54332 15.8071 9.54332 15.4166 9.1528C15.026 8.76228 15.026 8.12911 15.4166 7.73859L21.3066 1.84859C21.5926 1.56259 22.0227 1.47703 22.3964 1.63181Z" fill="white"/>
<path fill-rule="evenodd" clip-rule="evenodd" d="M16.6137 14.4457C15.5091 14.4457 14.6137 15.3411 14.6137 16.4457C14.6137 17.5503 15.5091 18.4457 16.6137 18.4457C17.7182 18.4457 18.6137 17.5503 18.6137 16.4457C18.6137 15.3411 17.7182 14.4457 16.6137 14.4457ZM12.6137 16.4457C12.6137 14.2366 14.4045 12.4457 16.6137 12.4457C18.8228 12.4457 20.6137 14.2366 20.6137 16.4457C20.6137 18.6548 18.8228 20.4457 16.6137 20.4457C14.4045 20.4457 12.6137 18.6548 12.6137 16.4457Z" fill="white"/>
<path fill-rule="evenodd" clip-rule="evenodd" d="M8.12367 5.95569C7.0191 5.95569 6.12367 6.85112 6.12367 7.95569C6.12367 9.06026 7.0191 9.95569 8.12367 9.95569C9.22824 9.95569 10.1237 9.06026 10.1237 7.95569C10.1237 6.85112 9.22824 5.95569 8.12367 5.95569ZM4.12367 7.95569C4.12367 5.74655 5.91453 3.95569 8.12367 3.95569C10.3328 3.95569 12.1237 5.74655 12.1237 7.95569C12.1237 10.1648 10.3328 11.9557 8.12367 11.9557C5.91453 11.9557 4.12367 10.1648 4.12367 7.95569Z" fill="white"/>
<path fill-rule="evenodd" clip-rule="evenodd" d="M12.3637 10.2057C11.2591 10.2057 10.3637 11.1011 10.3637 12.2057C10.3637 13.3103 11.2591 14.2057 12.3637 14.2057C13.4682 14.2057 14.3637 13.3103 14.3637 12.2057C14.3637 11.1011 13.4682 10.2057 12.3637 10.2057ZM8.36367 12.2057C8.36367 9.99655 10.1545 8.20569 12.3637 8.20569C14.5728 8.20569 16.3637 9.99655 16.3637 12.2057C16.3637 14.4148 14.5728 16.2057 12.3637 16.2057C10.1545 16.2057 8.36367 14.4148 8.36367 12.2057Z" fill="white"/>
<path fill-rule="evenodd" clip-rule="evenodd" d="M13.9237 4.40569C12.8191 4.40569 11.9237 5.30112 11.9237 6.40569C11.9237 7.51026 12.8191 8.40569 13.9237 8.40569C15.0282 8.40569 15.9237 7.51026 15.9237 6.40569C15.9237 5.30112 15.0282 4.40569 13.9237 4.40569ZM9.92367 6.40569C9.92367 4.19655 11.7145 2.40569 13.9237 2.40569C16.1328 2.40569 17.9237 4.19655 17.9237 6.40569C17.9237 8.61483 16.1328 10.4057 13.9237 10.4057C11.7145 10.4057 9.92367 8.61483 9.92367 6.40569Z" fill="white"/>
<path fill-rule="evenodd" clip-rule="evenodd" d="M18.1637 8.64569C17.0591 8.64569 16.1637 9.54112 16.1637 10.6457C16.1637 11.7503 17.0591 12.6457 18.1637 12.6457C19.2682 12.6457 20.1637 11.7503 20.1637 10.6457C20.1637 9.54112 19.2682 8.64569 18.1637 8.64569ZM14.1637 10.6457C14.1637 8.43655 15.9545 6.64569 18.1637 6.64569C20.3728 6.64569 22.1637 8.43655 22.1637 10.6457C22.1637 12.8548 20.3728 14.6457 18.1637 14.6457C15.9545 14.6457 14.1637 12.8548 14.1637 10.6457Z" fill="white"/>
<path fill-rule="evenodd" clip-rule="evenodd" d="M6.57367 11.7557C5.4691 11.7557 4.57367 12.6511 4.57367 13.7557C4.57367 14.8603 5.4691 15.7557 6.57367 15.7557C7.67824 15.7557 8.57367 14.8603 8.57367 13.7557C8.57367 12.6511 7.67824 11.7557 6.57367 11.7557ZM2.57367 13.7557C2.57367 11.5466 4.36453 9.75569 6.57367 9.75569C8.78281 9.75569 10.5737 11.5466 10.5737 13.7557C10.5737 15.9648 8.78281 17.7557 6.57367 17.7557C4.36453 17.7557 2.57367 15.9648 2.57367 13.7557Z" fill="white"/>
<path fill-rule="evenodd" clip-rule="evenodd" d="M10.8137 15.9957C9.7091 15.9957 8.81367 16.8911 8.81367 17.9957C8.81367 19.1003 9.7091 19.9957 10.8137 19.9957C11.9182 19.9957 12.8137 19.1003 12.8137 17.9957C12.8137 16.8911 11.9182 15.9957 10.8137 15.9957ZM6.81367 17.9957C6.81367 15.7866 8.60453 13.9957 10.8137 13.9957C13.0228 13.9957 14.8137 15.7866 14.8137 17.9957C14.8137 20.2048 13.0228 21.9957 10.8137 21.9957C8.60453 21.9957 6.81367 20.2048 6.81367 17.9957Z" fill="white"/>
<path fill-rule="evenodd" clip-rule="evenodd" d="M5.01367 17.5557C3.9091 17.5557 3.01367 18.4511 3.01367 19.5557C3.01367 20.6603 3.9091 21.5557 5.01367 21.5557C6.11824 21.5557 7.01367 20.6603 7.01367 19.5557C7.01367 18.4511 6.11824 17.5557 5.01367 17.5557ZM1.01367 19.5557C1.01367 17.3466 2.80453 15.5557 5.01367 15.5557C7.22281 15.5557 9.01367 17.3466 9.01367 19.5557C9.01367 21.7648 7.22281 23.5557 5.01367 23.5557C2.80453 23.5557 1.01367 21.7648 1.01367 19.5557Z" fill="white"/>
</svg>
