<svg width="25" height="25" viewBox="0 0 25 25" fill="none" xmlns="http://www.w3.org/2000/svg">
<g clip-path="url(#clip0_309_2642)">
<path d="M16.1225 17.6735C15.2675 18.6612 14.7905 20.4627 15.4153 21.0447C16.0093 21.4895 17.615 21.4355 18.7985 19.814C19.6618 18.7317 19.3685 16.9197 18.8803 16.439C18.1505 15.8847 17.1035 16.604 16.1225 17.6862V17.6735ZM8.06828 17.9705C7.15853 16.9317 5.97803 16.3137 5.21603 16.7712C4.70378 17.153 4.61078 18.458 5.33678 19.739C6.41453 21.263 7.93478 21.419 8.55953 21.0477C9.21953 20.5595 8.86028 18.9065 8.06753 17.9697L8.06828 17.9705ZM12.173 21.1145C11.0683 21.0912 9.37178 21.5562 9.39578 22.1495C9.37553 22.5522 10.7278 23.7207 12.1025 23.6615C13.4263 23.6922 14.7973 22.5215 14.7823 22.0137C14.7785 21.4895 13.2853 21.0875 12.176 21.131L12.173 21.1145ZM12.0995 7.1735C10.8223 7.14275 9.59528 8.1065 9.59528 8.66525C9.59153 9.3455 10.6033 10.04 12.107 10.0602C13.6498 10.067 14.6218 9.5015 14.6383 8.798C14.654 8.00525 13.2433 7.16075 12.1183 7.17275L12.0995 7.1735ZM9.02528 7.7045C6.89228 7.36025 5.11553 8.60375 5.18528 10.8957C5.25503 11.7785 9.81428 7.85675 9.02903 7.721L9.02528 7.7045ZM18.7753 10.9542C18.845 8.67725 17.0683 7.43525 14.9315 7.778C14.1463 7.91525 18.7048 11.8407 18.7753 10.9542ZM19.1383 11.7785C17.9 11.4507 18.7205 16.8297 19.7285 16.3955C20.8378 15.5247 21.1933 12.9462 19.1383 11.7942V11.7785ZM4.24028 16.4547C5.24753 16.904 6.06803 11.525 4.82903 11.8535C2.77928 13.0092 3.13028 15.5832 4.24028 16.4705V16.4547ZM13.658 10.5057C12.509 11.2557 12.302 12.9357 13.1968 14.252C14.087 15.572 15.74 16.064 16.8838 15.3297C18.0328 14.6 18.2398 12.92 17.3488 11.5835C16.454 10.2515 14.8018 9.7715 13.658 10.5215V10.5057ZM10.5605 10.6422C9.41528 9.90725 7.75928 10.388 6.87278 11.7042C5.97878 13.04 6.18578 14.7162 7.33403 15.4662C8.47928 16.2162 10.1308 15.7355 11.0263 14.4035C11.909 13.0835 11.6983 11.4035 10.5613 10.6572L10.5605 10.6422ZM14.927 17.8025C14.9188 16.4112 13.6768 15.2862 12.1498 15.3027C10.622 15.3177 9.38753 16.439 9.39578 17.834V17.861C9.40403 19.256 10.6498 20.381 12.1768 20.3652C13.7038 20.3652 14.9345 19.229 14.9188 17.8505V17.8182L14.927 17.8025ZM18.1385 2.66975C15.8293 3.854 14.4868 4.799 13.7473 5.60675C14.126 7.10675 16.091 7.166 16.814 7.11875C16.6648 7.061 16.5403 6.971 16.4968 6.854C16.6768 6.73175 17.318 6.83825 17.7665 6.596C17.5948 6.56825 17.5123 6.53675 17.4343 6.40025C17.8565 6.26825 18.3095 6.1625 18.5743 5.936C18.434 5.936 18.2975 5.96675 18.11 5.846C18.485 5.654 18.887 5.486 19.2028 5.189C19.0078 5.189 18.797 5.189 18.7385 5.11475C19.063 4.92257 19.3578 4.68434 19.6138 4.4075C19.3438 4.45475 19.2268 4.42775 19.16 4.3805C19.4218 4.1225 19.754 3.89975 19.91 3.5675C19.7068 3.6455 19.52 3.6575 19.3873 3.5675C19.481 3.37625 19.8605 3.2555 20.078 2.7905C19.8643 2.82125 19.637 2.83775 19.5898 2.7905C19.6918 2.39975 19.8598 2.17775 20.0278 1.9355C19.571 1.9355 18.875 1.9355 18.9095 1.90775L19.1915 1.62275C18.7453 1.502 18.2885 1.6385 17.9563 1.7435C17.8085 1.6385 17.9563 1.4855 18.14 1.33775C17.7493 1.4 17.4088 1.475 17.1088 1.59575C16.9445 1.44275 17.21 1.31075 17.3465 1.15775C16.7488 1.2785 16.5065 1.42775 16.2523 1.5755C16.0723 1.41125 16.2373 1.2635 16.358 1.13075C15.908 1.295 15.6823 1.502 15.4438 1.697C15.3538 1.592 15.233 1.51775 15.3808 1.24775C15.0688 1.42775 14.8258 1.6385 14.6465 1.877C14.4545 1.74425 14.5295 1.57625 14.5295 1.42775C14.1973 1.697 13.9895 1.967 13.7368 2.24C13.6738 2.20925 13.631 2.08775 13.5995 1.89275C12.8218 2.64275 11.7088 4.51775 13.3145 5.2475C14.6615 4.15325 16.2943 3.3455 18.0958 2.74325L18.1385 2.66975ZM5.88053 2.66975C7.67753 3.272 9.29828 4.07975 10.6588 5.189C12.2518 4.439 11.1508 2.564 10.373 1.83425C10.334 2.0255 10.2913 2.162 10.241 2.1935C9.98678 1.92425 9.77978 1.6505 9.45203 1.38125C9.45203 1.5335 9.53003 1.7135 9.33428 1.8305C9.14021 1.57252 8.89416 1.35815 8.61203 1.20125C8.75978 1.45925 8.63528 1.5335 8.55278 1.6505C8.31503 1.4285 8.08778 1.21775 7.65503 1.0535C7.77578 1.20125 7.95503 1.35425 7.77578 1.5185C7.53653 1.36925 7.28003 1.21775 6.69803 1.09625C6.83003 1.244 7.10003 1.39625 6.93578 1.54925C6.60328 1.41845 6.25549 1.33049 5.90078 1.2875C6.08003 1.43975 6.24053 1.57625 6.09203 1.69325C5.74778 1.5725 5.28728 1.439 4.83803 1.56125L5.11928 1.8425C5.15153 1.8815 4.46303 1.87325 3.99803 1.87775C4.16603 2.105 4.33778 2.327 4.43603 2.73275C4.38878 2.7755 4.16603 2.7485 3.95228 2.73275C4.17803 3.18275 4.54928 3.3035 4.63928 3.4985C4.50653 3.59225 4.32653 3.57275 4.11653 3.4985C4.28078 3.81125 4.61228 4.03775 4.86653 4.30775C4.79153 4.3505 4.68653 4.382 4.40153 4.34675C4.63928 4.60475 4.92428 4.83875 5.27228 5.0495C5.20928 5.11925 4.99853 5.1155 4.79153 5.12375C5.10428 5.429 5.51078 5.58875 5.88578 5.7875C5.69078 5.92475 5.55353 5.89325 5.42078 5.89325C5.67503 6.11525 6.14003 6.221 6.56153 6.3545C6.46778 6.49025 6.39728 6.5225 6.21353 6.5495C6.66278 6.80375 7.29128 6.68675 7.47578 6.81875C7.42853 6.9395 7.31153 7.0295 7.16003 7.0925C7.87778 7.13525 9.85928 7.07675 10.2343 5.57675C9.49553 4.769 8.14853 3.8225 5.83928 2.65475L5.88053 2.66975ZM7.61528 0.435496C7.84928 0.431746 8.04803 0.571246 8.26703 0.638746C8.79428 0.466996 8.91503 0.700996 9.17303 0.798496C9.75128 0.677746 9.92678 0.938746 10.2043 1.21625L10.5253 1.20425C11.396 1.712 11.8295 2.74325 11.9825 3.27125C12.1348 2.74325 12.5683 1.712 13.4398 1.20425L13.76 1.2125C14.0368 0.931246 14.213 0.673246 14.7913 0.794746C15.053 0.688996 15.17 0.466996 15.7025 0.630496C16.0348 0.524746 16.3235 0.255496 16.7608 0.583246C17.1275 0.435496 17.4875 0.388246 17.804 0.673246C18.2998 0.613996 18.4558 0.735496 18.5773 0.883996C18.6875 0.883996 19.3865 0.778246 19.7105 1.24325C20.5235 1.15325 20.7778 1.70825 20.4845 2.231C20.6525 2.48525 20.8243 2.72825 20.4373 3.20825C20.585 3.47825 20.495 3.7595 20.1635 4.118C20.2573 4.493 20.0893 4.751 19.7923 4.958C19.8515 5.47025 19.3123 5.771 19.163 5.87225C19.1008 6.173 18.98 6.458 18.3673 6.6065C18.2773 7.0565 17.9023 7.13075 17.5423 7.22075C18.7303 7.89575 19.73 8.7785 19.73 10.9505L19.913 11.2512C21.2608 12.0605 22.4758 14.6532 20.585 16.7675C20.468 17.4237 20.2573 17.8887 20.0743 18.4115C19.8043 20.5242 17.9923 21.5135 17.5153 21.6342C16.8245 22.157 16.0775 22.6535 15.074 22.997C14.1283 23.9577 13.097 24.3327 12.077 24.3327H11.9878C10.9528 24.3327 9.92078 23.9577 8.97578 22.997C7.96778 22.6527 7.21778 22.1607 6.52703 21.6342C6.04628 21.5172 4.24478 20.528 3.96428 18.4152C3.77753 17.8925 3.57053 17.411 3.44903 16.751C1.55378 14.6382 2.76503 12.0477 4.11278 11.2347L4.28453 10.9377C4.28453 8.7665 5.28728 7.88 6.47153 7.208C6.11228 7.118 5.75228 7.04375 5.65178 6.59075C5.03453 6.4415 4.91303 6.1565 4.85453 5.85575C4.70528 5.7545 4.16678 5.45375 4.22528 4.931C3.92453 4.72025 3.76028 4.466 3.85028 4.07525C3.53753 3.731 3.44828 3.431 3.58028 3.161C3.19028 2.681 3.36953 2.42675 3.53453 2.18825C3.24878 1.661 3.50678 1.0955 4.31528 1.1855C4.62728 0.720496 5.33453 0.825496 5.43653 0.825496C5.55728 0.673246 5.72153 0.540496 6.21728 0.599746C6.53003 0.313996 6.89303 0.360496 7.26428 0.497746C7.41653 0.376996 7.54928 0.333496 7.67003 0.333496L7.61528 0.435496Z" fill="white"/>
</g>
<defs>
<clipPath id="clip0_309_2642">
<rect width="24" height="24" fill="white" transform="translate(0.0136719 0.333496)"/>
</clipPath>
</defs>
</svg>
