<svg width="25" height="25" viewBox="0 0 25 25" fill="none" xmlns="http://www.w3.org/2000/svg">
<path fill-rule="evenodd" clip-rule="evenodd" d="M8.19466 3.88867L6.93061 6.78829C6.70991 7.29456 6.12058 7.52606 5.61431 7.30535C5.10804 7.08465 4.87654 6.49533 5.09724 5.98906L6.49241 2.78867C6.60931 2.52083 6.8019 2.29296 7.04653 2.13307C7.29088 1.97337 7.57652 1.88843 7.86842 1.88867C7.86875 1.88867 7.86809 1.88867 7.86842 1.88867H16.1599C16.4517 1.88863 16.7372 1.9737 16.9814 2.13348C17.2258 2.29335 17.4181 2.52106 17.5349 2.78867L18.9306 5.98894C19.1513 6.49518 18.9199 7.08453 18.4137 7.3053C17.9074 7.52607 17.3181 7.29465 17.0973 6.78841L15.8327 3.88867H8.19466ZM5.61419 18.472C6.12043 18.2513 6.70979 18.4827 6.93056 18.9889L8.19511 21.8887H15.8332L17.0972 18.9891C17.3179 18.4828 17.9073 18.2513 18.4135 18.472C18.9198 18.6927 19.1513 19.282 18.9306 19.7883L17.5354 22.9887C17.4185 23.2565 17.226 23.4844 16.9813 23.6443C16.7367 23.8042 16.4507 23.8891 16.1584 23.8887H7.86691C7.57517 23.8885 7.28981 23.8033 7.04578 23.6434C6.80174 23.4836 6.60961 23.2561 6.49291 22.9887L5.0973 19.7884C4.87653 19.2822 5.10795 18.6928 5.61419 18.472Z" fill="white"/>
<path fill-rule="evenodd" clip-rule="evenodd" d="M5.59971 5.47446C5.97478 5.09939 6.48349 4.88867 7.01393 4.88867H17.0139C17.5444 4.88867 18.0531 5.09939 18.4281 5.47446C18.8032 5.84953 19.0139 6.35824 19.0139 6.88867V18.8887C19.0139 19.4191 18.8032 19.9278 18.4281 20.3029C18.0531 20.678 17.5444 20.8887 17.0139 20.8887H7.01393C6.48349 20.8887 5.97479 20.678 5.59971 20.3029C5.22464 19.9278 5.01393 19.4191 5.01393 18.8887V6.88867C5.01393 6.35824 5.22464 5.84953 5.59971 5.47446ZM17.0139 6.88867H7.01393L7.01393 18.8887H17.0139L17.0139 6.88867Z" fill="white"/>
<path fill-rule="evenodd" clip-rule="evenodd" d="M18.0139 5.88867C18.5662 5.88867 19.0139 6.33639 19.0139 6.88867V16.8887C19.0139 17.441 18.5662 17.8887 18.0139 17.8887C17.4616 17.8887 17.0139 17.441 17.0139 16.8887V12.8737L16.2842 13.0684C15.7825 13.2021 15.3137 13.438 14.9075 13.7613C14.5012 14.0846 14.1662 14.4882 13.9232 14.947M17.0139 10.8038V9.84382L15.8426 9.77073C15.3241 9.73835 14.8048 9.82291 14.3233 10.0182C13.8418 10.2135 13.4104 10.5144 13.0608 10.8989C12.2236 11.8198 11.0973 12.4274 9.8679 12.6214C9.86787 12.6214 9.86794 12.6214 9.8679 12.6214L7.01393 13.0721V16.1036L8.99497 16.0137C8.99501 16.0137 8.99493 16.0137 8.99497 16.0137C9.65046 15.9839 10.2869 15.7834 10.8412 15.4323C11.3956 15.0811 11.8486 14.5913 12.1556 14.0113C12.5274 13.3091 13.0403 12.6911 13.6621 12.1964C14.2838 11.7016 15.001 11.3406 15.7687 11.136C15.7687 11.1359 15.7686 11.136 15.7687 11.136L17.0139 10.8038ZM7.01393 18.1057V18.8887C7.01393 19.441 6.56621 19.8887 6.01393 19.8887C5.46164 19.8887 5.01393 19.441 5.01393 18.8887V8.88867C5.01393 8.33639 5.46164 7.88867 6.01393 7.88867C6.56621 7.88867 7.01393 8.33639 7.01393 8.88867V11.0473L9.55595 10.6459C10.3356 10.5229 11.05 10.1375 11.581 9.55348C12.1321 8.9473 12.8125 8.4727 13.5717 8.1648C14.3309 7.8569 15.1495 7.72356 15.9672 7.77461C15.9672 7.77461 15.9672 7.77461 15.9672 7.77461L17.0139 7.83993L17.0139 6.88867C17.0139 6.33639 17.4616 5.88867 18.0139 5.88867M7.01393 18.1057L9.08576 18.0116C10.0891 17.966 11.0632 17.6593 11.9116 17.1218C12.7599 16.5843 13.4534 15.8346 13.9232 14.947" fill="white"/>
</svg>
