<svg width="25" height="25" viewBox="0 0 25 25" fill="none" xmlns="http://www.w3.org/2000/svg">
<path fill-rule="evenodd" clip-rule="evenodd" d="M5.81326 8.143C5.80827 8.14885 5.8032 8.15466 5.79806 8.16041C3.07402 11.2085 3.7379 15.2721 5.98859 17.3132M5.81326 8.143C6.78753 7.06523 8.14214 6.72063 9.55423 6.77664C10.9842 6.83336 12.3378 7.30207 13.0604 7.66978C13.3123 7.79799 13.6067 7.81358 13.8708 7.71271C14.1617 7.60157 14.8156 7.45006 15.5648 7.44673C16.3171 7.44338 17.0289 7.59005 17.5426 7.93813C17.5425 7.93808 17.5427 7.93819 17.5426 7.93813C19.0911 8.98866 21.1607 11.8493 19.232 16.053C18.4775 17.6978 17.0913 18.9114 15.6304 19.7779C14.3557 20.5339 13.0823 20.9905 12.2725 21.2229C10.942 20.664 8.54385 19.6297 5.98859 17.3132M13.5858 5.70622C12.6232 5.2789 11.1784 4.83949 9.6335 4.77821C7.85762 4.70777 5.81652 5.13825 4.30687 6.82711C4.3008 6.8339 4.29483 6.84077 4.28895 6.84771C0.821604 10.7487 1.62112 16.0526 4.64518 18.7948C7.51632 21.3978 10.2301 22.5354 11.5779 23.1004C11.6612 23.1353 11.7392 23.1681 11.8118 23.1988C12.013 23.2841 12.2366 23.3011 12.4485 23.2472C13.342 23.0199 14.9869 22.4848 16.6506 21.4981C18.31 20.5139 20.0648 19.0343 21.0499 16.887C23.4701 11.612 20.8437 7.76058 18.6653 6.28297C17.6875 5.62018 16.5183 5.44247 15.5559 5.44675C14.8143 5.45005 14.1143 5.56163 13.5858 5.70622Z" fill="white"/>
<path fill-rule="evenodd" clip-rule="evenodd" d="M14.4456 6.41486C14.6462 6.92943 14.3917 7.50918 13.8771 7.70976C12.9361 8.07659 11.3557 8.70856 10.4853 10.5756C9.68223 12.297 10.0742 13.7505 10.3954 14.9411C10.4525 15.1526 10.5073 15.3559 10.5528 15.5508C10.6783 16.0887 10.344 16.6264 9.80616 16.7519C9.26832 16.8774 8.73058 16.5431 8.60509 16.0053C8.57618 15.8814 8.53396 15.7316 8.48518 15.5585C8.15693 14.3937 7.53193 12.1758 8.67259 9.7305M14.4456 6.41486C14.2451 5.90029 13.6653 5.64575 13.1507 5.84634L14.4456 6.41486ZM13.1507 5.84634C13.1436 5.8491 13.1365 5.85189 13.1293 5.85471L13.1507 5.84634ZM13.1293 5.85471C12.1351 6.24212 9.8913 7.1167 8.67259 9.7305L13.1293 5.85471Z" fill="white"/>
<path fill-rule="evenodd" clip-rule="evenodd" d="M10.9016 1.85621C10.9057 1.85754 10.9106 1.85909 10.9162 1.86087C10.9234 1.86314 10.9325 1.86596 10.943 1.86923C10.9818 1.88132 11.0406 1.89961 11.0997 1.9193C11.2575 1.97193 11.4787 2.05382 11.7134 2.18251C12.1887 2.44312 12.7696 2.9278 12.9841 3.78551C13.1444 4.42699 13.0785 4.95483 12.9724 5.37953C12.9344 5.53142 12.887 5.68479 12.851 5.801C12.8418 5.83083 12.8333 5.8582 12.8259 5.88248C12.7841 6.02062 12.7634 6.10326 12.7538 6.16971C12.6756 6.71642 12.169 7.0962 11.6223 7.01797C11.0756 6.93973 10.6958 6.43311 10.774 5.88639C10.8063 5.66109 10.865 5.45717 10.912 5.30224C10.926 5.25605 10.9387 5.21463 10.9506 5.17633C10.9833 5.0702 11.0087 4.98805 11.032 4.89482C11.0846 4.68406 11.102 4.50355 11.0438 4.27059M10.9016 1.85621C10.4203 1.65326 9.85757 1.85612 9.62004 2.32976C9.37246 2.82344 9.57196 3.42436 10.0656 3.67194C10.1657 3.72212 10.277 3.75659 10.3097 3.76672C10.3121 3.76747 10.3141 3.76809 10.3156 3.76857C10.3326 3.77391 10.348 3.7787 10.3626 3.78324C10.3981 3.79429 10.4289 3.8039 10.4671 3.81662C10.567 3.84995 10.6636 3.88784 10.7519 3.93621C10.9224 4.0297 11.0082 4.12837 11.0438 4.27059" fill="white"/>
<path fill-rule="evenodd" clip-rule="evenodd" d="M15.2956 4.26126C15.6333 3.99684 16.1205 3.88642 16.609 3.86734L15.2956 4.26126ZM16.609 3.86734C16.4735 4.33737 16.2498 4.78404 15.9123 5.04879L16.609 3.86734ZM16.9808 1.86788C16.2506 1.84325 15.0333 1.92623 14.0623 2.68679C13.0904 3.44817 12.7191 4.61118 12.5684 5.32538C12.5128 5.57448 12.5127 5.83283 12.5682 6.08205C12.6245 6.33496 12.7367 6.57209 12.8964 6.77608C13.0562 6.98008 13.2595 7.14578 13.4916 7.26107C13.7204 7.37476 13.9715 7.4366 14.2268 7.44222C14.9561 7.46633 16.1741 7.38422 17.1455 6.62331C18.1166 5.86201 18.4887 4.69904 18.6395 3.98387C18.695 3.73464 18.695 3.47621 18.6393 3.22694C18.5828 2.97409 18.4705 2.73706 18.3107 2.53319C18.1508 2.32932 17.9474 2.16375 17.7153 2.0486C17.4866 1.93516 17.2358 1.87348 16.9808 1.86788ZM14.2534 6.44255L14.2876 5.44361C14.2815 5.44309 14.2754 5.44277 14.2693 5.44268L14.2534 6.44255ZM15.9123 5.04879C15.5749 5.31297 15.0881 5.42328 14.5988 5.44257L15.9123 5.04879ZM14.5988 5.44257C14.7343 4.97246 14.9579 4.52587 15.2956 4.26126L14.5988 5.44257Z" fill="white"/>
</svg>
