<svg width="25" height="25" viewBox="0 0 25 25" fill="none" xmlns="http://www.w3.org/2000/svg">
<g clip-path="url(#clip0_309_2634)">
<path d="M0.763672 4.03526L4.16492 2.31176C5.50442 1.62176 7.53767 1.92476 8.71292 3.15176C11.9439 1.95026 15.5979 3.17126 17.4624 6.14876L17.4639 6.15101L17.8344 6.73376C19.1327 8.79846 20.0615 11.0734 20.5794 13.4568V13.4583L20.8404 14.6425C21.5859 18.07 19.8692 21.5695 16.6982 23.0245C15.2371 23.6971 13.5949 23.8686 12.0264 23.5124C10.4579 23.1561 9.05083 22.292 8.02367 21.0543L8.02217 21.052L7.35992 20.254L7.35917 20.2525C5.49685 18.0235 4.11819 15.4316 3.31067 12.6415V12.64C3.01022 11.6016 2.93669 10.5108 3.09509 9.44146C3.25349 8.37215 3.6401 7.34944 4.22867 6.44276C2.79092 6.49826 1.39442 5.59676 0.763672 4.03526ZM8.83367 4.72526L7.95617 5.12501C5.29817 6.34376 3.92867 9.37151 4.75217 12.2238C5.50178 14.8148 6.78186 17.2217 8.51117 19.2918L8.51342 19.294L9.17567 20.0928L9.17642 20.0935C9.99249 21.0778 11.1108 21.765 12.3575 22.0485C13.6043 22.3319 14.9098 22.1957 16.0712 21.661H16.0727C18.5912 20.506 19.9727 17.7138 19.3749 14.962V14.9613L19.1147 13.7785V13.7763C18.6336 11.5633 17.771 9.45104 16.5654 7.53401L16.5647 7.53251L16.1919 6.94601C14.6282 4.44626 11.4924 3.50576 8.83367 4.72451V4.72526Z" fill="white"/>
</g>
<defs>
<clipPath id="clip0_309_2634">
<rect width="24" height="24" fill="white" transform="translate(0.0136719 0.444336)"/>
</clipPath>
</defs>
</svg>
