<svg width="25" height="25" viewBox="0 0 25 25" fill="none" xmlns="http://www.w3.org/2000/svg">
<path d="M10.0137 12.2222C8.91367 12.2222 8.01367 13.1222 8.01367 14.2222C8.01367 15.3222 8.91367 16.2222 10.0137 16.2222C11.1137 16.2222 12.0137 15.3222 12.0137 14.2222C12.0137 13.1222 11.1137 12.2222 10.0137 12.2222ZM6.01367 8.22217C4.91367 8.22217 4.01367 9.12217 4.01367 10.2222C4.01367 11.3222 4.91367 12.2222 6.01367 12.2222C7.11367 12.2222 8.01367 11.3222 8.01367 10.2222C8.01367 9.12217 7.11367 8.22217 6.01367 8.22217ZM6.01367 16.2222C4.91367 16.2222 4.01367 17.1222 4.01367 18.2222C4.01367 19.3222 4.91367 20.2222 6.01367 20.2222C7.11367 20.2222 8.01367 19.3222 8.01367 18.2222C8.01367 17.1222 7.11367 16.2222 6.01367 16.2222ZM18.0137 8.22217C19.1137 8.22217 20.0137 7.32217 20.0137 6.22217C20.0137 5.12217 19.1137 4.22217 18.0137 4.22217C16.9137 4.22217 16.0137 5.12217 16.0137 6.22217C16.0137 7.32217 16.9137 8.22217 18.0137 8.22217ZM14.0137 16.2222C12.9137 16.2222 12.0137 17.1222 12.0137 18.2222C12.0137 19.3222 12.9137 20.2222 14.0137 20.2222C15.1137 20.2222 16.0137 19.3222 16.0137 18.2222C16.0137 17.1222 15.1137 16.2222 14.0137 16.2222ZM18.0137 12.2222C16.9137 12.2222 16.0137 13.1222 16.0137 14.2222C16.0137 15.3222 16.9137 16.2222 18.0137 16.2222C19.1137 16.2222 20.0137 15.3222 20.0137 14.2222C20.0137 13.1222 19.1137 12.2222 18.0137 12.2222ZM14.0137 8.22217C12.9137 8.22217 12.0137 9.12217 12.0137 10.2222C12.0137 11.3222 12.9137 12.2222 14.0137 12.2222C15.1137 12.2222 16.0137 11.3222 16.0137 10.2222C16.0137 9.12217 15.1137 8.22217 14.0137 8.22217ZM10.0137 4.22217C8.91367 4.22217 8.01367 5.12217 8.01367 6.22217C8.01367 7.32217 8.91367 8.22217 10.0137 8.22217C11.1137 8.22217 12.0137 7.32217 12.0137 6.22217C12.0137 5.12217 11.1137 4.22217 10.0137 4.22217Z" fill="white"/>
</svg>
