<svg width="25" height="25" viewBox="0 0 25 25" fill="none" xmlns="http://www.w3.org/2000/svg">
<path d="M2.01367 16.1108H17.0137V19.1108H2.01367V16.1108ZM20.5137 16.1108H22.0137V19.1108H20.5137V16.1108ZM18.0137 16.1108H19.5137V19.1108H18.0137V16.1108ZM18.8637 7.84084C19.4837 7.23084 19.8637 6.39084 19.8637 5.46084C19.8637 3.61084 18.3637 2.11084 16.5137 2.11084V3.61084C17.5137 3.61084 18.3637 4.44084 18.3637 5.46084C18.3637 6.48084 17.5137 7.31084 16.5137 7.31084V8.81084C18.7537 8.81084 20.5137 10.6408 20.5137 12.8808V15.1108H22.0137V12.8708C22.0137 10.6508 20.7337 8.73084 18.8637 7.84084ZM16.0437 10.3108H14.5137C13.5137 10.3108 12.6637 9.33084 12.6637 8.31084C12.6637 7.29084 13.5137 6.56084 14.5137 6.56084V5.06084C13.6252 5.06084 12.7731 5.41379 12.1449 6.04203C11.5166 6.67028 11.1637 7.52236 11.1637 8.41084C11.1637 9.29932 11.5166 10.1514 12.1449 10.7796C12.7731 11.4079 13.6252 11.7608 14.5137 11.7608H16.0437C17.0937 11.7608 18.0137 12.5008 18.0137 13.8108V15.1108H19.5137V13.4708C19.5137 11.6608 17.9137 10.3108 16.0437 10.3108Z" fill="white"/>
</svg>
