<svg width="25" height="25" viewBox="0 0 25 25" fill="none" xmlns="http://www.w3.org/2000/svg">
<path d="M16.4137 17.0665C19.8137 13.6665 19.8137 8.1665 16.4137 4.8665L4.21367 17.0665C7.51367 20.4665 13.0137 20.4665 16.4137 17.0665ZM16.0137 7.6665C16.6137 7.6665 17.0137 8.0665 17.0137 8.6665C17.0137 9.2665 16.6137 9.6665 16.0137 9.6665C15.4137 9.6665 15.0137 9.2665 15.0137 8.6665C15.0137 8.0665 15.4137 7.6665 16.0137 7.6665ZM16.0137 11.6665C16.6137 11.6665 17.0137 12.0665 17.0137 12.6665C17.0137 13.2665 16.6137 13.6665 16.0137 13.6665C15.4137 13.6665 15.0137 13.2665 15.0137 12.6665C15.0137 12.0665 15.4137 11.6665 16.0137 11.6665ZM12.0137 11.6665C12.6137 11.6665 13.0137 12.0665 13.0137 12.6665C13.0137 13.2665 12.6137 13.6665 12.0137 13.6665C11.4137 13.6665 11.0137 13.2665 11.0137 12.6665C11.0137 12.0665 11.4137 11.6665 12.0137 11.6665ZM12.0137 15.6665C12.6137 15.6665 13.0137 16.0665 13.0137 16.6665C13.0137 17.2665 12.6137 17.6665 12.0137 17.6665C11.4137 17.6665 11.0137 17.2665 11.0137 16.6665C11.0137 16.0665 11.4137 15.6665 12.0137 15.6665ZM8.01367 17.6665C7.41367 17.6665 7.01367 17.2665 7.01367 16.6665C7.01367 16.0665 7.41367 15.6665 8.01367 15.6665C8.61367 15.6665 9.01367 16.0665 9.01367 16.6665C9.01367 17.2665 8.61367 17.6665 8.01367 17.6665ZM18.6137 19.2665C14.0137 23.8665 6.61367 23.8665 2.01367 19.2665L3.41367 17.8665C7.21367 21.6665 13.3137 21.6665 17.1137 17.8665C20.9137 14.0665 20.9137 7.9665 17.1137 4.1665L18.6137 2.6665C23.1137 7.2665 23.1137 14.6665 18.6137 19.2665Z" fill="white"/>
</svg>
