<svg width="90" height="59" viewBox="0 0 90 59" fill="none" xmlns="http://www.w3.org/2000/svg">
<path d="M30.0586 0V4.61426C17.7539 11.0514 11.6016 18.7703 11.6016 27.771C11.6016 32.4422 12.7979 34.7778 15.1904 34.7778C15.7601 34.7778 17.1273 34.493 19.292 33.9233C21.5137 33.3537 22.9663 33.0688 23.6499 33.0688C27.2388 33.0688 30.0586 34.3506 32.1094 36.9141C34.1602 39.4206 35.1855 42.0695 35.1855 44.8608C35.1855 48.6776 33.7329 51.8392 30.8276 54.3457C27.9793 56.8522 24.5614 58.1055 20.5737 58.1055C14.6493 58.1055 9.86409 55.7129 6.21826 50.9277C2.62939 46.0856 0.834961 40.9302 0.834961 35.4614C0.834961 18.1437 10.5762 6.32324 30.0586 0ZM83.8916 0.341797V4.61426C71.473 11.735 65.2637 19.7103 65.2637 28.54C65.2637 32.7555 66.5454 34.8633 69.1089 34.8633C69.6216 34.8633 70.9888 34.5784 73.2104 34.0088C75.4891 33.3822 77.0272 33.0688 77.8247 33.0688C85.4582 33.0688 89.2749 36.9141 89.2749 44.6045C89.2749 48.82 87.6798 52.1525 84.4897 54.6021C81.3566 56.9946 77.9671 58.1909 74.3213 58.1909C69.0234 58.1909 64.4661 55.9692 60.6494 51.5259C56.8327 47.0256 54.9243 41.7847 54.9243 35.8032C54.9243 17.8019 64.5801 5.98145 83.8916 0.341797Z" fill="#AA826B"/>
</svg>
